<?xml version="1.0" encoding="utf-8"?>
<!-- Generator: Adobe Illustrator 16.0.0, SVG Export Plug-In . SVG Version: 6.00 Build 0)  -->
<!DOCTYPE svg PUBLIC "-//W3C//DTD SVG 1.1//EN" "http://www.w3.org/Graphics/SVG/1.1/DTD/svg11.dtd">
<svg version="1.1" id="Layer_1" xmlns="http://www.w3.org/2000/svg" xmlns:xlink="http://www.w3.org/1999/xlink" x="0px" y="0px"
	 width="3423.36px" height="522.98px" viewBox="0 0 3423.36 522.98" enable-background="new 0 0 3423.36 522.98"
	 xml:space="preserve">
<g>
	<g>
		<path d="M3404.891,406.55c-10.201-0.021-18.488,8.229-18.512,18.431c-0.021,10.2,8.23,18.487,18.432,18.513
			c10.199,0.021,18.486-8.229,18.51-18.434c0-0.013,0-0.023,0-0.04C3423.309,414.84,3415.071,406.583,3404.891,406.55z
			 M3404.891,440.55c-8.594-0.005-15.557-6.977-15.551-15.569c0.006-8.594,6.977-15.556,15.57-15.551
			c8.59,0.006,15.549,6.974,15.549,15.562c0.006,8.604-6.965,15.584-15.568,15.59l0,0V440.55z"/>
		<path d="M3410.891,421.88c0-3.36-2.4-5.36-5.881-5.36h-5.91v16.82h2.9v-6.1h3.15l3.049,6.1h3.121l-3.361-6.729
			C3409.833,425.804,3411.002,423.915,3410.891,421.88z M3404.891,424.67h-2.861v-5.58h2.861c1.949,0,3.119,1,3.119,2.79
			s-1.199,2.79-3.15,2.79H3404.891L3404.891,424.67z"/>
	</g>
	<g>
		<path d="M3420.459,175.1h-35c-25.059,0-46.85,13.07-52.84,44.67v-45.1h-68.51v265.8h68.51V281.52c0-28.87,18.52-43,47.391-43
			h40.42L3420.459,175.1z"/>
		<path d="M3098.049,170.18c-75.877,0-137.389,61.511-137.389,137.392c0,75.878,61.512,137.39,137.389,137.39
			c75.879,0,137.391-61.512,137.391-137.39l0,0C3235.44,231.691,3173.928,170.18,3098.049,170.18z M3098.049,382.18
			c-41.221,0-74.639-33.416-74.639-74.64s33.416-74.64,74.639-74.64s74.641,33.417,74.641,74.64c0,0.003,0,0.007,0,0.01
			c0.006,41.224-33.408,74.646-74.629,74.65c-0.004,0-0.008,0-0.012,0V382.18L3098.049,382.18z"/>
		<path d="M2875.231,284.25l-39.861-10.939c-26.23-6.83-36.449-14.877-36.449-28.739c0-13.51,14.359-22.95,34.91-22.95
			c19.58,0,34.92,12.83,34.92,29.2v1.51h63v-1.52c0-48.23-39.34-80.64-97.9-80.64c-58,0-100.104,32.38-100.104,77
			c0,34.722,23,60.859,63.139,71.729l38.18,10.41c29,8,39.791,17,39.791,32.907c0,16.843-15.58,28.16-38.791,28.16
			c-24.189,0-40.439-15.29-40.439-38.05v-1.521h-66.859v1.521c0,54.53,43.898,92.62,106.75,92.62
			c60.58,0,104.539-37.21,104.539-88.46C2940.03,331.42,2928.79,298.529,2875.231,284.25z"/>
		<g>
			<rect x="2630.59" y="174.66" width="68.33" height="265.8"/>
			<path d="M2664.75,69.52c-23.42,0-41.391,18.52-41.391,41.94c-0.355,22.862,17.891,41.683,40.754,42.037
				c22.855,0.355,41.682-17.891,42.037-40.752c0.006-0.428,0.006-0.856,0-1.285C2706.151,88.04,2688.18,69.52,2664.75,69.52z"/>
		</g>
		<polygon points="2469.43,367.67 2408.639,174.66 2336.86,174.66 2428.04,440.46 2510.28,440.46 2602,174.66 2530.219,174.66 		"/>
		<path d="M2244.92,197.14c-23.178-17.633-51.527-27.124-80.65-27c-75.879,0-137.389,61.511-137.389,137.389
			c0,75.879,61.51,137.391,137.389,137.391l0,0c29.123,0.128,57.475-9.363,80.65-27v22.48h68.32V80.06h-68.32V197.14z
			 M2170.321,382.2c-41.223,0.005-74.645-33.407-74.65-74.63c-0.004-41.223,33.406-74.646,74.629-74.65
			c41.229-0.005,74.646,33.407,74.65,74.63c0,0.007,0,0.015,0,0.021C2244.944,348.785,2211.536,382.193,2170.321,382.2z"/>
		<path d="M1929.811,197.14c-23.18-17.633-51.527-27.124-80.65-27c-75.879,0-137.391,61.511-137.391,137.389
			c0,75.879,61.512,137.391,137.391,137.391c29.123,0.128,57.473-9.363,80.65-27v22.48h68.33V174.67h-68.33V197.14z
			 M1929.811,307.57c-0.006,41.217-33.424,74.625-74.641,74.619s-74.625-33.422-74.621-74.643
			c0.006-41.213,33.418-74.62,74.631-74.62c41.217,0,74.631,33.413,74.631,74.63C1929.811,307.562,1929.811,307.566,1929.811,307.57
			z"/>
		<path d="M1549.97,170.18c-29.122-0.125-57.472,9.367-80.646,27v-22.51H1401V518.5h68.32V417.99
			c23.176,17.637,51.523,27.128,80.646,27c75.879,0,137.393-61.512,137.393-137.391c0-75.88-61.514-137.393-137.393-137.393
			L1549.97,170.18L1549.97,170.18z M1543.97,382.18c-41.222,0-74.64-33.416-74.64-74.64s33.418-74.64,74.64-74.64
			c41.224,0,74.642,33.417,74.642,74.64c0,0.003,0,0.007,0,0.01c0.007,41.224-33.405,74.646-74.631,74.65c-0.011,0-0.021,0-0.027,0
			L1543.97,382.18z"/>
		<g>
			<rect x="1293.48" y="174.66" width="68.328" height="265.8"/>
			<path d="M1327.641,69.52c-23.421,0-41.397,18.52-41.397,41.94c0,22.865,18.535,41.4,41.397,41.4
				c22.864,0,41.399-18.535,41.399-41.4C1369.04,88.04,1351.061,69.52,1327.641,69.52z"/>
		</g>
		<path d="M1178.59,219.33v-44.66h-68.5v265.8h68.5V281.09c0-28.87,18.521-43,47.391-43h37.479v-63.42h-32
			C1206.37,174.67,1184.59,187.74,1178.59,219.33z"/>
		<polygon points="1143.6,80.05 881.42,80.05 881.42,141.03 978.46,141.03 978.46,440.46 1046.561,440.46 1046.561,141.03 
			1143.6,141.03 		"/>
	</g>
</g>
<g>
	<circle cx="203.316" cy="302.336" r="72.33"/>
	<path d="M611.07,230.01c-39.947,0-72.33,32.383-72.33,72.33s32.383,72.33,72.33,72.33c39.945,0,72.33-32.383,72.33-72.33
		c0.005-39.941-32.369-72.324-72.312-72.33C611.083,230.01,611.076,230.01,611.07,230.01z"/>
	<path d="M666.859,79.91C510.314-26.636,304.544-26.636,148,79.91H0l66.59,72.45C24.248,190.888,0.142,245.503,0.21,302.75
		c0,112.39,91.11,203.5,203.49,203.5c51.302,0.067,100.722-19.314,138.3-54.24l65.24,71l65.199-70.938
		c37.569,34.896,86.972,54.266,138.25,54.197c112.391,0,203.578-91.107,203.578-203.5c0.068-57.248-24.035-111.86-66.381-150.391
		l66.594-72.45L666.859,79.91z M203.7,440.47c-76.061,0-137.72-61.659-137.72-137.72c0-76.061,61.659-137.72,137.72-137.72
		c76.061,0,137.72,61.66,137.72,137.72l0,0C341.42,378.811,279.761,440.47,203.7,440.47z M407.24,298.811
		c0-90.627-65.92-168.391-152.85-201.641c97.815-40.753,207.855-40.753,305.667,0C473.14,130.41,407.24,208.17,407.24,298.811z
		 M748.41,302.811c-0.027,76.062-61.71,137.697-137.771,137.673c-76.061-0.028-137.694-61.712-137.67-137.771
		c0.028-76.041,61.68-137.67,137.724-137.67c76.057,0,137.714,61.653,137.72,137.71L748.41,302.811L748.41,302.811z"/>
</g>
</svg>
