<?xml version="1.0" standalone="no"?>
<!DOCTYPE svg PUBLIC "-//W3C//DTD SVG 1.1//EN" "http://www.w3.org/Graphics/SVG/1.1/DTD/svg11.dtd" >
<svg xmlns="http://www.w3.org/2000/svg" xmlns:xlink="http://www.w3.org/1999/xlink" version="1.1">
<metadata>
Created by FontForge 20170731 at Thu Mar 12 18:57:35 2020
 By Aleksey,,,
Copyright (c) 2020 by Tripadvisor LLC and Colophon Foundry. All rights reserved.
</metadata>
<defs>
<font id="TripSansMono-Regular" horiz-adv-x="600" >
  <font-face 
    font-family="Trip Sans Mono"
    font-weight="400"
    font-stretch="normal"
    units-per-em="1000"
    panose-1="2 11 5 9 3 5 4 4 2 3"
    ascent="800"
    descent="-200"
    x-height="494"
    cap-height="700"
    bbox="-490 -256 703 1006"
    underline-thickness="50"
    underline-position="-150"
    unicode-range="U+0020-1F989"
  />
<missing-glyph 
d="M267 266q-30 -28 -71 -28t-71.5 30t-30.5 72q0 43 34 77l-34 36h75q59 40 130 40q70 0 131 -40h74l-34 -36q33 -33 33 -77q0 -42 -29.5 -72t-72.5 -30q-41 0 -69 28l-33 -36zM320.5 403.5q21.5 27.5 55.5 40.5q-34 15 -77 15q-41 0 -76 -15q33 -13 54.5 -40.5t21.5 -60.5
q0 33 21.5 60.5zM245.5 291q20.5 20 20.5 49t-20.5 49.5t-49.5 20.5q-28 0 -48 -20.5t-20 -49.5q0 -28 20 -48.5t48 -20.5q29 0 49.5 20zM450 291.5q20 20.5 20 48.5q0 29 -20 49.5t-49 20.5q-28 0 -48.5 -20.5t-20.5 -49.5q0 -28 20.5 -48.5t48.5 -20.5q29 0 49 20.5z
M171.5 315.5q-10.5 10.5 -10.5 24.5q0 15 10.5 26t24.5 11q16 0 26.5 -11t10.5 -26q0 -14 -10.5 -24.5t-26.5 -10.5q-14 0 -24.5 10.5zM375.5 315.5q-10.5 10.5 -10.5 24.5q0 15 10.5 26t25.5 11t25.5 -11t10.5 -26q0 -14 -10 -24.5t-26 -10.5q-15 0 -25.5 10.5z" />
    <glyph glyph-name=".notdef" 
d="M267 266q-30 -28 -71 -28t-71.5 30t-30.5 72q0 43 34 77l-34 36h75q59 40 130 40q70 0 131 -40h74l-34 -36q33 -33 33 -77q0 -42 -29.5 -72t-72.5 -30q-41 0 -69 28l-33 -36zM320.5 403.5q21.5 27.5 55.5 40.5q-34 15 -77 15q-41 0 -76 -15q33 -13 54.5 -40.5t21.5 -60.5
q0 33 21.5 60.5zM245.5 291q20.5 20 20.5 49t-20.5 49.5t-49.5 20.5q-28 0 -48 -20.5t-20 -49.5q0 -28 20 -48.5t48 -20.5q29 0 49.5 20zM450 291.5q20 20.5 20 48.5q0 29 -20 49.5t-49 20.5q-28 0 -48.5 -20.5t-20.5 -49.5q0 -28 20.5 -48.5t48.5 -20.5q29 0 49 20.5z
M171.5 315.5q-10.5 10.5 -10.5 24.5q0 15 10.5 26t24.5 11q16 0 26.5 -11t10.5 -26q0 -14 -10.5 -24.5t-26.5 -10.5q-14 0 -24.5 10.5zM375.5 315.5q-10.5 10.5 -10.5 24.5q0 15 10.5 26t25.5 11t25.5 -11t10.5 -26q0 -14 -10 -24.5t-26 -10.5q-15 0 -25.5 10.5z" />
    <glyph glyph-name=".null" horiz-adv-x="0" 
 />
    <glyph glyph-name="nonmarkingreturn" horiz-adv-x="333" 
 />
    <glyph glyph-name="space" unicode=" " 
 />
    <glyph glyph-name="exclam" unicode="!" 
d="M246 700h108l-24 -470h-60zM248 12q-21 21 -21 52t21 52t52 21t52 -21t21 -52t-21 -52t-52 -21t-52 21z" />
    <glyph glyph-name="quotedbl" unicode="&#x22;" 
d="M162 700h76v-258h-76v258zM362 700h76v-258h-76v258z" />
    <glyph glyph-name="numbersign" unicode="#" 
d="M471 426l-18 -152h110v-76h-118l-23 -198h-82l23 198h-160l-23 -198h-82l23 198h-84v76h92l18 152h-110v76h118l23 198h82l-23 -198h160l23 198h82l-23 -198h84v-76h-92zM389 426h-160l-18 -152h160z" />
    <glyph glyph-name="dollar" unicode="$" 
d="M527 99q-25 -45 -72 -74.5t-112 -36.5v-96h-74v96q-103 10 -162.5 71t-59.5 154h86q0 -58 37.5 -97.5t98.5 -48.5v267l-15 3q-87 18 -134 66.5t-47 125.5q0 47 25.5 86.5t70 65t100.5 31.5v94h74v-94q90 -11 142 -66t52 -132h-85q0 47 -29.5 79t-79.5 41v-236l36 -9
q79 -19 126 -69t47 -122q0 -54 -25 -99zM183 462q26 -28 86 -46v220q-51 -8 -81.5 -36t-30.5 -67q0 -43 26 -71zM434.5 106q31.5 32 31.5 87q0 96 -123 125v-252q60 8 91.5 40z" />
    <glyph glyph-name="percent" unicode="%" 
d="M85.5 430q-35.5 20 -55.5 55t-20 77t20 76.5t55.5 55t78.5 20.5t78.5 -20.5t55.5 -55t20 -76.5t-20 -77t-55.5 -55t-78.5 -20t-78.5 20zM228.5 496q25.5 26 25.5 66t-25.5 66t-64.5 26t-64.5 -26t-25.5 -66t25.5 -66t64.5 -26t64.5 26zM33 200l500 348l34 -48l-500 -348z
M357.5 6q-35.5 20 -55.5 55t-20 77t20 76.5t55.5 55t78.5 20.5t78.5 -20.5t55.5 -55t20 -76.5t-20 -77t-55.5 -55t-78.5 -20t-78.5 20zM500.5 72q25.5 26 25.5 66t-25.5 66t-64.5 26t-64.5 -26t-25.5 -66t25.5 -66t64.5 -26t64.5 26z" />
    <glyph glyph-name="ampersand" unicode="&#x26;" 
d="M462 118l90 -118h-106l-44 58q-41 -37 -82 -54.5t-94 -17.5q-56 0 -100.5 25t-70 70t-25.5 103q0 64 36 111.5t93 80.5q-30 43 -46 81.5t-16 82.5q0 47 23.5 87t65.5 63.5t95 23.5q51 0 92 -21t64 -57.5t23 -80.5q0 -64 -41 -109.5t-99 -71.5l-40 -18l136 -178l12 13
l107 111l49 -56l-105 -110zM210.5 611q-29.5 -27 -29.5 -70q0 -53 56 -128l40 18q54 24 79.5 53.5t25.5 68.5q0 36 -29.5 60.5t-71.5 24.5q-41 0 -70.5 -27zM357 116l-154 203q-44 -25 -65.5 -56.5t-21.5 -73.5q0 -53 34 -89t88 -36q62 0 119 52z" />
    <glyph glyph-name="quotesingle" unicode="'" 
d="M262 700h76v-258h-76v258z" />
    <glyph glyph-name="parenleft" unicode="(" 
d="M227.5 55.5q-51.5 112.5 -51.5 254.5t51.5 254.5t133.5 191.5h83q-90 -95 -139 -204.5t-49 -241.5t49 -241.5t139 -204.5h-83q-82 79 -133.5 191.5z" />
    <glyph glyph-name="parenright" unicode=")" 
d="M295 68.5q49 109.5 49 241.5t-49 241.5t-139 204.5h83q82 -79 133.5 -191.5t51.5 -254.5t-51.5 -254.5t-133.5 -191.5h-83q90 95 139 204.5z" />
    <glyph glyph-name="asterisk" unicode="*" 
d="M346 511l93 -100l-73 -53l-66 117l-66 -117l-73 53l93 100l-134 26l28 86l123 -57l-16 134h90l-16 -134l123 57l28 -86z" />
    <glyph glyph-name="plus" unicode="+" 
d="M536 315h-201v-201h-70v201h-201v70h201v201h70v-201h201v-70z" />
    <glyph glyph-name="comma" unicode="," 
d="M197 -67h48q30 0 48 14t18 44q-40 0 -62 20t-22 53q0 31 21 52t52 21q38 0 60 -30.5t22 -81.5q0 -74 -37 -113t-96 -39h-52v60z" />
    <glyph glyph-name="hyphen" unicode="-" 
d="M160 370h280v-70h-280v70z" />
    <glyph glyph-name="period" unicode="." 
d="M248 12q-21 21 -21 52t21 52t52 21t52 -21t21 -52t-21 -52t-52 -21t-52 21z" />
    <glyph glyph-name="slash" unicode="/" 
d="M430 760h80l-340 -820h-80z" />
    <glyph glyph-name="zero" unicode="0" 
d="M171 26.5q-62 40.5 -100 122.5t-38 201t38 201t100 122.5t134 40.5q71 0 131 -40.5t95.5 -122.5t35.5 -201t-35.5 -201t-95.5 -122.5t-131 -40.5q-72 0 -134 40.5zM430 134q49 70 49 216t-49 216t-125 70q-49 0 -90.5 -29.5t-67.5 -93.5t-26 -163t26 -163t67.5 -93.5
t90.5 -29.5q76 0 125 70z" />
    <glyph glyph-name="one" unicode="1" 
d="M69 78h177v541h-157v81h244v-622h177v-78h-441v78z" />
    <glyph glyph-name="two" unicode="2" 
d="M84 69l250 244q51 50 74 94.5t23 98.5q0 60 -35.5 95t-91.5 35q-58 0 -92.5 -35t-39.5 -90h-83q3 57 29.5 103t75 73t112.5 27q99 0 154.5 -56t55.5 -146q0 -69 -29.5 -128.5t-89.5 -117.5l-191 -185h317v-81h-439v69z" />
    <glyph glyph-name="three" unicode="3" 
d="M182 17q-51 31 -77 81t-26 106h83q4 -60 41.5 -100t102.5 -40t104.5 36.5t39.5 102.5q0 56 -38.5 90.5t-101.5 34.5h-40v73h40q56 0 90.5 32t34.5 85t-35.5 86t-96.5 33q-57 0 -94 -34t-42 -87h-79q1 55 29 100t76 71.5t110 26.5q63 0 112 -24.5t76 -67.5t27 -96
q0 -52 -29.5 -95t-67.5 -63q51 -19 83.5 -62.5t32.5 -103.5t-29 -109.5t-81.5 -78t-121.5 -28.5q-72 0 -123 31z" />
    <glyph glyph-name="four" unicode="4" 
d="M360 183h-320v48l313 469h93v-445h101v-72h-101v-183h-86v183zM360 255v259q0 25 4 67l-216 -326h212z" />
    <glyph glyph-name="five" unicode="5" 
d="M431 432q50 -30 79 -84t29 -123t-31 -123.5t-85.5 -85t-123.5 -30.5t-121.5 30t-80.5 79t-28 106h84q2 -60 43.5 -99.5t104.5 -39.5q71 0 111.5 46t40.5 117t-40 117t-112 46q-45 0 -84.5 -26t-60.5 -68h-81l38 406h399v-76h-327l-26 -231q25 31 67.5 50t92.5 19
q62 0 112 -30z" />
    <glyph glyph-name="six" unicode="6" 
d="M435.5 426.5q49.5 -29.5 78.5 -82.5t29 -119q0 -68 -32.5 -122.5t-88 -85.5t-121.5 -31q-72 0 -127.5 32t-86 86.5t-30.5 120.5q0 69 25 123t78 129l157 223h96l-192 -270q47 26 106 26t108.5 -29.5zM379.5 81.5q35.5 19.5 56.5 56t21 83.5t-21 83.5t-56.5 56t-78.5 19.5
t-79 -20t-57.5 -56t-21.5 -83t21.5 -83t57.5 -56t79 -20t78.5 19.5z" />
    <glyph glyph-name="seven" unicode="7" 
d="M447 624h-389v76h478v-68l-285 -632h-88z" />
    <glyph glyph-name="eight" unicode="8" 
d="M179 14q-51 28 -77.5 75.5t-26.5 103.5q0 61 31 109.5t81 69.5q-41 23 -66.5 62.5t-25.5 96.5q0 52 27.5 94t74.5 65.5t103 23.5q57 0 104 -23.5t74 -65.5t27 -94q0 -57 -25.5 -96.5t-66.5 -62.5q51 -21 81.5 -69t30.5 -110q0 -56 -26.5 -103.5t-77.5 -75.5t-121 -28
t-121 28zM389.5 439.5q34.5 32.5 34.5 83.5t-34.5 83.5t-89.5 32.5q-54 0 -88.5 -32.5t-34.5 -83.5t34 -83.5t89 -32.5t89.5 32.5zM400.5 102q38.5 38 38.5 96q0 59 -38 97.5t-101 38.5q-62 0 -100 -38.5t-38 -97.5q0 -58 38 -96t100 -38t100.5 38z" />
    <glyph glyph-name="nine" unicode="9" 
d="M429.5 682.5q55.5 -31.5 84.5 -85.5t29 -122q0 -69 -25 -123t-78 -129l-157 -223h-96l190 267q-41 -23 -99 -23q-59 0 -110 30t-81 82.5t-30 118.5q0 68 32.5 122.5t88 85.5t121.5 31q75 0 130.5 -31.5zM378 340q36 20 57.5 56t21.5 83t-21.5 83t-57.5 56t-79 20
t-78.5 -19.5t-56.5 -56t-21 -83.5t21 -83.5t56.5 -56t78.5 -19.5t79 20z" />
    <glyph glyph-name="colon" unicode=":" 
d="M248 12q-21 21 -21 52t21 52t52 21t52 -21t21 -52t-21 -52t-52 -21t-52 21zM248 383q-21 21 -21 52t21 52t52 21t52 -21t21 -52t-21 -52t-52 -21t-52 21z" />
    <glyph glyph-name="semicolon" unicode=";" 
d="M197 -67h48q30 0 48 14t18 44q-40 0 -62 20t-22 53q0 31 21 52t52 21q38 0 60 -30.5t22 -81.5q0 -74 -37 -113t-96 -39h-52v60zM248 383q-21 21 -21 52t21 52t52 21t52 -21t21 -52t-21 -52t-52 -21t-52 21z" />
    <glyph glyph-name="less" unicode="&#x3c;" 
d="M64 311v78l472 220v-78l-397 -181l397 -181v-78z" />
    <glyph glyph-name="equal" unicode="=" 
d="M64 495h472v-70h-472v70zM64 275h472v-70h-472v70z" />
    <glyph glyph-name="greater" unicode="&#x3e;" 
d="M64 169l397 181l-397 181v78l472 -220v-78l-472 -220v78z" />
    <glyph glyph-name="question" unicode="?" 
d="M275 252q0 56 20.5 90t76.5 70q41 27 58.5 53t17.5 67q0 48 -38.5 77t-97.5 29q-66 0 -104.5 -37.5t-43.5 -97.5h-78q1 58 29 106t79 76.5t118 28.5q61 0 109.5 -23.5t75.5 -64t27 -87.5q0 -62 -24 -102.5t-78 -73.5q-45 -27 -60 -52t-15 -62v-19h-72v22zM263 12
q-21 21 -21 52t21 52t52 21t52 -21t21 -52t-21 -52t-52 -21t-52 21z" />
    <glyph glyph-name="at" unicode="@" 
d="M174 -62.5q-71 51.5 -108.5 145t-37.5 217.5q0 122 37.5 216t106 146t158.5 52q79 0 133.5 -34.5t81.5 -90t27 -119.5v-358h-74v60q-19 -27 -53 -45.5t-74 -18.5q-55 0 -96.5 25t-63.5 68.5t-22 98.5q0 54 24 98.5t66 70t92 25.5q43 0 76.5 -16.5t50.5 -42.5v43
q0 41 -20.5 78.5t-59 60.5t-88.5 23q-64 0 -114 -40.5t-78 -117.5t-28 -182t30.5 -182t83.5 -117.5t119 -40.5q48 0 83.5 8.5t74.5 28.5v-75q-70 -36 -158 -36q-98 0 -169 51.5zM462.5 214q32.5 33 32.5 86q0 54 -32.5 87.5t-81.5 33.5t-81.5 -33.5t-32.5 -87.5
q0 -53 32.5 -86t81.5 -33t81.5 33z" />
    <glyph glyph-name="A" unicode="A" 
d="M440 182h-280l-59 -182h-89l239 700h99l238 -700h-89zM415 260l-96 295l-19 58q-3 -10 -18 -58l-96 -295h229z" />
    <glyph glyph-name="B" unicode="B" 
d="M83 700h250q56 0 98 -22t64.5 -60t22.5 -85q0 -53 -27.5 -90.5t-68.5 -54.5q59 -23 92.5 -69t33.5 -115q0 -58 -29 -105t-79.5 -73t-111.5 -26h-245v700zM324 417q48 0 79 27.5t31 76.5t-31 76t-79 27h-155v-207h155zM326 78q61 0 98.5 36t37.5 96q0 61 -37.5 97
t-98.5 36h-157v-265h157z" />
    <glyph glyph-name="C" unicode="C" 
d="M169 25.5q-61 39.5 -97 121.5t-36 203t37 203t98.5 121.5t135.5 39.5q113 0 179 -68.5t75 -189.5h-85q-9 85 -53.5 132.5t-115.5 47.5q-48 0 -90 -29.5t-68.5 -94t-26.5 -162.5t26.5 -162.5t68.5 -94t90 -29.5q73 0 113.5 46t55.5 135h86q-14 -121 -80.5 -190t-174.5 -69
q-77 0 -138 39.5z" />
    <glyph glyph-name="D" unicode="D" 
d="M60 700h170q90 0 161 -41.5t111.5 -121t40.5 -187.5t-40.5 -187.5t-111.5 -121t-161 -41.5h-170v700zM224 78q67 0 119.5 31.5t82.5 92.5t30 148t-30 148t-82.5 92.5t-119.5 31.5h-78v-544h78z" />
    <glyph glyph-name="E" unicode="E" 
d="M74 700h451v-78h-365v-211h323v-78h-323v-255h368v-78h-454v700z" />
    <glyph glyph-name="F" unicode="F" 
d="M76 700h438v-78h-352v-247h289v-78h-289v-297h-86v700z" />
    <glyph glyph-name="G" unicode="G" 
d="M561 352v-37q0 -103 -32.5 -177.5t-89.5 -113t-131 -38.5q-81 0 -142.5 41t-95.5 123t-34 200q0 117 36 199t98 123.5t139 41.5q102 0 166.5 -61.5t71.5 -167.5h-84q-7 73 -48.5 112t-105.5 39q-82 0 -134 -71t-52 -215q0 -145 51 -215.5t134 -70.5q155 0 172 214h-149
v74h230z" />
    <glyph glyph-name="H" unicode="H" 
d="M56 700h86v-287h316v287h86v-700h-86v335h-316v-335h-86v700z" />
    <glyph glyph-name="I" unicode="I" 
d="M82 78h175v544h-175v78h436v-78h-175v-544h175v-78h-436v78z" />
    <glyph glyph-name="J" unicode="J" 
d="M200 12.5q-50 26.5 -79.5 79.5t-29.5 128v40h86v-45q0 -69 37.5 -110t96.5 -41t96 41t37 110v485h86v-473q0 -77 -29.5 -131.5t-79 -82t-110.5 -27.5t-111 26.5z" />
    <glyph glyph-name="K" unicode="K" 
d="M454 0l-297 332v-332h-86v700h86v-328l292 328h110l-308 -346l313 -354h-110z" />
    <glyph glyph-name="L" unicode="L" 
d="M66 700h86v-622h368v-78h-454v700z" />
    <glyph glyph-name="M" unicode="M" 
d="M34 700h104l139 -408q1 -3 10 -27.5t13 -53.5q6 33 23 81l139 408h104v-700h-82v442q0 48 6 103l-158 -465h-63l-158 465q6 -74 6 -103v-442h-83v700z" />
    <glyph glyph-name="N" unicode="N" 
d="M65 700h84l307 -552q-5 58 -5 94v458h84v-700h-84l-308 552q1 -10 3.5 -38.5t2.5 -55.5v-458h-84v700z" />
    <glyph glyph-name="O" unicode="O" 
d="M161 27.5q-61 41.5 -96 123.5t-35 199t35 199t96 123.5t139 41.5t139 -41.5t96 -123.5t35 -199t-35 -199t-96 -123.5t-139 -41.5t-139 41.5zM435 137.5q48 73.5 48 212.5t-48 212.5t-135 73.5t-135 -73.5t-48 -212.5t48 -212.5t135 -73.5t135 73.5z" />
    <glyph glyph-name="P" unicode="P" 
d="M60 700h252q63 0 113.5 -26t79 -74.5t28.5 -111.5q0 -64 -28.5 -112t-79 -74t-113.5 -26h-166v-276h-86v700zM307 352q62 0 101 36.5t39 99.5t-39 99.5t-101 36.5h-161v-272h161z" />
    <glyph glyph-name="Q" unicode="Q" 
d="M161 40.5q-61 40.5 -96 121t-35 195.5t35 195.5t96 121t139 40.5t139 -40.5t96 -121t35 -195.5q0 -93 -28.5 -164t-79.5 -115h108v-78h-270q-78 0 -139 40.5zM435 150q48 72 48 207t-48 207t-135 72t-135 -72t-48 -207t48 -207t135 -72t135 72z" />
    <glyph glyph-name="R" unicode="R" 
d="M468 0l-144 280h-173v-280h-86v700h243q68 0 120 -27t81 -74.5t29 -108.5q0 -67 -34.5 -117t-95.5 -74l152 -299h-92zM304 356q70 0 109 35.5t39 98.5t-39 98.5t-109 35.5h-153v-268h153z" />
    <glyph glyph-name="S" unicode="S" 
d="M180.5 14q-53.5 28 -83 77.5t-29.5 113.5h86q0 -64 44 -102.5t109 -38.5t103 34.5t38 91.5q0 48 -28.5 74.5t-93.5 48.5l-84 29q-74 26 -117 72.5t-43 113.5q0 54 29 96.5t78.5 66t110.5 23.5q68 0 117 -24.5t74.5 -68.5t25.5 -100h-85q0 51 -37 84t-95 33
q-38 0 -68.5 -14t-47 -37t-16.5 -49q0 -40 28.5 -70.5t89.5 -51.5l95 -33q76 -26 114.5 -71t38.5 -117q0 -58 -27.5 -105.5t-79.5 -75.5t-124 -28q-69 0 -122.5 28z" />
    <glyph glyph-name="T" unicode="T" 
d="M257 622h-213v78h512v-78h-213v-622h-86v622z" />
    <glyph glyph-name="U" unicode="U" 
d="M176.5 17.5q-55.5 31.5 -88 90.5t-32.5 139v453h86v-464q0 -77 44 -124.5t114 -47.5t114 48t44 124v464h86v-453q0 -80 -32.5 -139t-88 -90.5t-123.5 -31.5t-123.5 31.5z" />
    <glyph glyph-name="V" unicode="V" 
d="M28 700h87l167 -556q6 -18 18 -68l9 31l10 37l165 556h88l-217 -700h-109z" />
    <glyph glyph-name="W" unicode="W" 
d="M10 700h87l52 -536l6 -68q3 32 8 68l84 536h106l84 -536q5 -36 8 -68l6 68l52 536h87l-83 -700h-121l-76 498l-5 37l-5 39l-5 -39l-5 -37l-76 -498h-121z" />
    <glyph glyph-name="X" unicode="X" 
d="M581 0h-104l-160 271l-18 32q2 4 -18 -32l-158 -271h-104l228 374l-195 326h101l130 -233l18 -33l18 33l131 233h101l-199 -329z" />
    <glyph glyph-name="Y" unicode="Y" 
d="M257 281l-228 419h98l147 -283q14 -26 26 -56q12 30 26 56l147 283h98l-228 -419v-281h-86v281z" />
    <glyph glyph-name="Z" unicode="Z" 
d="M44 78l388 544h-370v78h468v-78l-389 -544h407v-78h-504v78z" />
    <glyph glyph-name="bracketleft" unicode="[" 
d="M244 680v-740h202v-76h-286v892h286v-76h-202z" />
    <glyph glyph-name="backslash" unicode="\" 
d="M90 760h80l340 -820h-80z" />
    <glyph glyph-name="bracketright" unicode="]" 
d="M440 -136h-286v76h202v740h-202v76h286v-892z" />
    <glyph glyph-name="asciicircum" unicode="^" 
d="M258 700h84l187 -299h-79l-150 241l-150 -241h-79z" />
    <glyph glyph-name="underscore" unicode="_" 
d="M96 -15h408v-70h-408v70z" />
    <glyph glyph-name="grave" unicode="`" 
d="M202 700h124l72 -133h-78z" />
    <glyph glyph-name="a" unicode="a" 
d="M164 20.5q-57 34.5 -89.5 94t-32.5 132.5q0 72 34 132t91.5 94.5t124.5 34.5q62 0 109.5 -23.5t76.5 -62.5v72h76v-494h-76v85q-29 -45 -77 -72t-111 -27q-69 0 -126 34.5zM388.5 83.5q40.5 23.5 65 66t24.5 97.5t-24.5 97.5t-65 66t-87.5 23.5q-49 0 -89.5 -23t-64 -66
t-23.5 -98t23.5 -98t64 -66t89.5 -23q47 0 87.5 23.5z" />
    <glyph glyph-name="b" unicode="b" 
d="M201 12.5q-51 26.5 -77 68.5v-81h-76v700h82v-281q25 37 76 63t111 26q67 0 122.5 -34.5t88 -94t32.5 -132.5t-33.5 -132.5t-90.5 -94t-124 -34.5q-60 0 -111 26.5zM390.5 83q40.5 23 64 66t23.5 98t-23.5 98t-64 66t-89.5 23q-47 0 -87.5 -23.5t-65 -66t-24.5 -97.5
t24.5 -97.5t65 -66t87.5 -23.5q49 0 89.5 23z" />
    <glyph glyph-name="c" unicode="c" 
d="M181.5 20q-57.5 34 -90 93.5t-32.5 133.5t33 133.5t90.5 93.5t128.5 34q97 0 158.5 -47.5t75.5 -129.5h-82q-14 46 -54 74.5t-98 28.5q-47 0 -85.5 -23t-61.5 -65.5t-23 -98.5t23 -98.5t62 -65.5t85 -23q60 0 98 27t54 76h82q-18 -83 -79 -130t-155 -47q-72 0 -129.5 34z
" />
    <glyph glyph-name="d" unicode="d" 
d="M168 20.5q-57 34.5 -89.5 94t-32.5 132.5q0 72 34 132t91.5 94.5t124.5 34.5q61 0 107.5 -23.5t72.5 -58.5v274h82v-700h-76v85q-29 -45 -77 -72t-111 -27q-69 0 -126 34.5zM392.5 83.5q40.5 23.5 65 66t24.5 97.5t-24.5 97.5t-65 66t-87.5 23.5q-49 0 -89.5 -23t-64 -66
t-23.5 -98t23.5 -98t64 -66t89.5 -23q47 0 87.5 23.5z" />
    <glyph glyph-name="e" unicode="e" 
d="M549 234h-409q0 -54 22.5 -94t60.5 -61t84 -21q59 0 99 29t56 76h78q-22 -80 -83.5 -128.5t-149.5 -48.5q-72 0 -129 33.5t-88.5 93t-31.5 134.5t32.5 134.5t89.5 93t126 33.5q73 0 128 -30.5t85 -86.5t30 -131v-26zM201 401.5q-43 -36.5 -56 -101.5h324q-8 64 -52 101
t-112 37q-61 0 -104 -36.5z" />
    <glyph glyph-name="f" unicode="f" 
d="M313 548v-54h187v-68h-187v-350h187v-76h-396v76h127v350h-127v68h127v57q0 70 37 109.5t104 39.5h128v-75h-113q-74 0 -74 -77z" />
    <glyph glyph-name="g" unicode="g" 
d="M185 -190q-52 24 -80.5 65t-31.5 91h82q5 -48 43.5 -77t104.5 -29q73 0 115 38t42 110v91q-60 -87 -175 -87q-64 0 -117 32t-84.5 88.5t-31.5 127.5t32.5 127.5t87 88.5t118.5 32q59 0 106.5 -24t69.5 -64v74h76v-484q0 -65 -31 -116t-85 -79.5t-121 -28.5q-68 0 -120 24
zM383 108q38 22 60.5 62t22.5 90q0 51 -22.5 90.5t-60.5 61.5t-83 22t-83 -22t-60.5 -61.5t-22.5 -90.5q0 -50 22.5 -90t60.5 -62t83 -22t83 22z" />
    <glyph glyph-name="h" unicode="h" 
d="M92 700h82v-272q19 33 62 56.5t98 23.5q79 0 127.5 -53t48.5 -139v-316h-82v306q0 60 -36 95t-90 35t-91 -35t-37 -95v-306h-82v700z" />
    <glyph glyph-name="i" unicode="i" 
d="M250.5 594.5q-20.5 20.5 -20.5 49.5q0 30 20.5 50t49.5 20q30 0 50 -20t20 -50q0 -29 -20 -49.5t-50 -20.5q-29 0 -49.5 20.5zM518 76v-76h-435v76h176v342h-146v76h228v-418h177z" />
    <glyph glyph-name="j" unicode="j" 
d="M316.5 595.5q-20.5 20.5 -20.5 49.5q0 30 20.5 50t49.5 20q30 0 50 -20t20 -50q0 -29 -20 -49.5t-50 -20.5q-29 0 -49.5 20.5zM122 -125h145q30 0 44 15.5t14 46.5v482h-203v76h285v-564q0 -61 -32 -95.5t-92 -34.5h-161v74z" />
    <glyph glyph-name="k" unicode="k" 
d="M405 0l-221 249v-249h-82v700h82v-435l210 229h105l-219 -237l229 -257h-104z" />
    <glyph glyph-name="l" unicode="l" 
d="M238.5 38.5q-47.5 52.5 -47.5 141.5v444h-131v76h213v-524q0 -56 25.5 -85t71.5 -29t71.5 29t25.5 85v29h82v-25q0 -85 -48 -139.5t-131 -54.5q-84 0 -131.5 52.5z" />
    <glyph glyph-name="m" unicode="m" 
d="M33 494h77v-49q12 28 42.5 45.5t66.5 17.5q40 0 65 -17.5t36 -45.5q15 27 47 45t75 18q56 0 90.5 -38t34.5 -99v-371h-82v358q0 33 -20 55.5t-52 22.5t-52 -22.5t-20 -55.5v-358h-82v358q0 33 -20 55.5t-52 22.5t-52 -22.5t-20 -55.5v-358h-82v494z" />
    <glyph glyph-name="n" unicode="n" 
d="M104 494h77v-73q19 40 58.5 63.5t99.5 23.5q82 0 128.5 -54.5t46.5 -140.5v-313h-82v300q0 64 -34 100t-89 36t-89 -36t-34 -100v-300h-82v494z" />
    <glyph glyph-name="o" unicode="o" 
d="M166.5 20.5q-59.5 34.5 -93.5 94t-34 132.5t34 132.5t93.5 94t133.5 34.5t133.5 -34.5t93.5 -94t34 -132.5t-34 -132.5t-93.5 -94t-133.5 -34.5t-133.5 34.5zM390 83q41 23 65 65.5t24 98.5t-24 98.5t-65 65.5t-90 23t-90 -23t-65 -65.5t-24 -98.5t24 -98.5t65 -65.5
t90 -23t90 23z" />
    <glyph glyph-name="p" unicode="p" 
d="M48 494h76v-84q27 43 77 70.5t111 27.5q69 0 126 -34.5t89.5 -94t32.5 -132.5q0 -72 -34 -132t-91.5 -94.5t-124.5 -34.5q-62 0 -107.5 24.5t-72.5 61.5v-272h-82v694zM390.5 83q40.5 23 64 66t23.5 98t-23.5 98t-64 66t-89.5 23q-47 0 -87.5 -23.5t-65 -66t-24.5 -97.5
t24.5 -97.5t65 -66t87.5 -23.5q49 0 89.5 23z" />
    <glyph glyph-name="q" unicode="q" 
d="M470 74q-27 -39 -73 -63.5t-109 -24.5q-67 0 -124 34.5t-90.5 94.5t-33.5 132q0 73 33 132.5t90.5 94t127.5 34.5q61 0 109.5 -26.5t75.5 -68.5v81h76v-694h-82v274zM386.5 83.5q40.5 23.5 65 66t24.5 97.5t-24.5 97.5t-65 66t-87.5 23.5q-49 0 -89.5 -23t-64 -66
t-23.5 -98t23.5 -98t64 -66t89.5 -23q47 0 87.5 23.5z" />
    <glyph glyph-name="r" unicode="r" 
d="M328 392q-26 -26 -26 -79v-237h164v-76h-375v76h129v342h-129v76h205v-83q9 42 37.5 62.5t70.5 20.5h128v-76h-125q-53 0 -79 -26z" />
    <glyph glyph-name="s" unicode="s" 
d="M198.5 9q-46.5 23 -72 63.5t-25.5 90.5h82q0 -45 33.5 -75t89.5 -30q53 0 84.5 19.5t31.5 55.5q0 32 -23 51.5t-71 29.5l-83 17q-64 13 -97 48.5t-33 87.5q0 40 24.5 72.5t68 50.5t97.5 18q58 0 100 -20t64 -53.5t22 -75.5h-78q0 20 -15.5 38t-41 29.5t-53.5 11.5
q-48 0 -77.5 -20t-29.5 -48t21 -46t69 -28l88 -19q60 -13 94.5 -47.5t34.5 -89.5q0 -71 -56 -112.5t-141 -41.5q-61 0 -107.5 23z" />
    <glyph glyph-name="t" unicode="t" 
d="M290 426v-264q0 -44 20.5 -65t63.5 -21h127v-76h-144q-71 0 -110 42t-39 116v268h-143v68h143v140h82v-140h211v-68h-211z" />
    <glyph glyph-name="u" unicode="u" 
d="M132.5 40.5q-46.5 54.5 -46.5 140.5v313h82v-300q0 -64 34 -100t89 -36t89 36t34 100v300h82v-494h-77v73q-19 -40 -58.5 -63.5t-99.5 -23.5q-82 0 -128.5 54.5z" />
    <glyph glyph-name="v" unicode="v" 
d="M40 494h90l153 -369q7 -17 17 -58q9 35 18 58l152 369h90l-217 -494h-86z" />
    <glyph glyph-name="w" unicode="w" 
d="M17 494h81l61 -343q6 -32 10 -59q4 32 11 59l77 343h86l77 -343q7 -27 11 -59q4 27 10 59l61 343h81l-109 -494h-87l-77 349q-3 11 -10 58q-7 -47 -10 -58l-77 -349h-87z" />
    <glyph glyph-name="x" unicode="x" 
d="M443 0l-145 192l-138 -192h-95l187 256l-180 238h99l132 -184l131 184h95l-181 -244l187 -250h-92z" />
    <glyph glyph-name="y" unicode="y" 
d="M68 -125h84q24 0 38 8.5t24 30.5l40 86l-217 494h91l150 -344q14 -32 20 -59l171 403h90l-266 -605q-20 -44 -49.5 -66.5t-76.5 -22.5h-99v75z" />
    <glyph glyph-name="z" unicode="z" 
d="M96 68l311 358h-303v68h399v-68l-310 -358h323v-68h-420v68z" />
    <glyph glyph-name="braceleft" unicode="{" 
d="M265 -101q-35 35 -35 102v206q0 65 -65 65h-51v76h51q65 0 65 65v206q0 67 35 102t102 35h119v-76h-118q-26 0 -40 -14t-14 -40v-226q0 -42 -13.5 -61t-42.5 -29q29 -10 42.5 -29t13.5 -61v-226q0 -26 14 -40t40 -14h118v-76h-119q-67 0 -102 35z" />
    <glyph glyph-name="bar" unicode="|" 
d="M258 756h84v-892h-84v892z" />
    <glyph glyph-name="braceright" unicode="}" 
d="M114 -60h118q26 0 40 14t14 40v226q0 42 13.5 61t42.5 29q-29 10 -42.5 29t-13.5 61v226q0 26 -14 40t-40 14h-118v76h119q67 0 102 -35t35 -102v-206q0 -65 65 -65h51v-76h-51q-65 0 -65 -65v-206q0 -67 -35 -102t-102 -35h-119v76z" />
    <glyph glyph-name="asciitilde" unicode="~" 
d="M350 286q-28 12 -68 35q-28 17 -47.5 26t-36.5 9q-30 0 -45 -20t-15 -54h-72q0 66 36.5 105t88.5 39q31 0 59 -12t68 -35q28 -17 47.5 -26t36.5 -9q30 0 45 20t15 54h72q0 -66 -36.5 -105t-88.5 -39q-31 0 -59 12z" />
    <glyph glyph-name="uni00A0" unicode="&#xa0;" 
 />
    <glyph glyph-name="exclamdown" unicode="&#xa1;" 
d="M352 488q21 -21 21 -52t-21 -52t-52 -21t-52 21t-21 52t21 52t52 21t52 -21zM330 270l24 -470h-108l24 470h60z" />
    <glyph glyph-name="cent" unicode="&#xa2;" 
d="M422.5 200q28.5 26 41.5 66h82q-16 -74 -66 -119.5t-129 -55.5v-91h-74v91q-63 8 -112.5 43.5t-77 91.5t-27.5 124q0 67 28 123t77.5 92t111.5 44v91h74v-91q81 -10 132 -56t63 -119h-82q-12 37 -41 63.5t-72 35.5v-367q43 8 71.5 34zM180 228q38 -49 97 -61v367
q-60 -12 -97.5 -61t-37.5 -123q0 -73 38 -122z" />
    <glyph glyph-name="sterling" unicode="&#xa3;" 
d="M556 78v-78h-512v78h15q37 0 58 22.5t21 63.5v137h-87v72h87v127q0 63 27 112t74 75.5t106 26.5q58 0 103.5 -24.5t71 -68t26.5 -96.5h-78q-4 49 -37 80t-86 31q-55 0 -88 -33t-33 -97v-133h191v-72h-191v-125q0 -62 -48 -98h380z" />
    <glyph glyph-name="currency" unicode="&#xa4;" 
d="M480 224l83 -83l-55 -55l-81 81q-58 -40 -128 -40t-128 40l-81 -81l-55 55l83 83q-38 55 -38 126t38 126l-83 83l55 55l81 -81q58 40 128 40t128 -40l81 81l55 -55l-83 -83q38 -55 38 -126t-38 -126zM397 247q39 42 39 103t-39 103t-98 42t-98 -42t-39 -103t39 -103
t98 -42t98 42z" />
    <glyph glyph-name="yen" unicode="&#xa5;" 
d="M383 358h143v-72h-183v-68h183v-72h-183v-146h-86v146h-183v72h183v68h-183v72h143l-192 342h98l152 -278q12 -22 25 -59q13 37 25 59l152 278h98z" />
    <glyph glyph-name="brokenbar" unicode="&#xa6;" 
d="M258 756h84v-390h-84v390zM258 254h84v-390h-84v390z" />
    <glyph glyph-name="section" unicode="&#xa7;" 
d="M484 105q19 -32 19 -72q0 -49 -27.5 -87t-75 -59t-104.5 -21q-95 0 -151 48t-56 125h85q0 -43 35 -70t87 -27q55 0 88 23.5t33 61.5t-25.5 59t-86.5 35l-81 18q-63 14 -101.5 53t-38.5 99q0 86 84 129q-33 23 -52 55t-19 72q0 49 27.5 87t75 59t104.5 21q95 0 151 -48
t56 -125h-85q0 43 -35 70t-87 27q-55 0 -88 -23.5t-33 -61.5t25.5 -59t86.5 -35l81 -18q63 -14 101.5 -53t38.5 -99q0 -86 -84 -129q33 -23 52 -55zM344 196q5 -1 20 -5q34 12 54.5 35.5t20.5 51.5q0 67 -104 89l-79 17q-5 1 -20 5q-34 -12 -54.5 -35.5t-20.5 -51.5
q0 -67 104 -89z" />
    <glyph glyph-name="dieresis" unicode="&#xa8;" 
d="M167 596q-18 18 -18 43q0 26 18 43.5t43 17.5q26 0 43.5 -17.5t17.5 -43.5t-17.5 -43.5t-43.5 -17.5q-25 0 -43 18zM346.5 596q-17.5 18 -17.5 43q0 26 17.5 43.5t43.5 17.5t43.5 -17.5t17.5 -43.5q0 -25 -18 -43t-43 -18q-26 0 -43.5 18z" />
    <glyph glyph-name="copyright" unicode="&#xa9;" 
d="M158 99q-65 37 -103.5 103t-38.5 148t38.5 148t103.5 103t142 37t142 -37t103.5 -103t38.5 -148t-38.5 -148t-103.5 -103t-142 -37t-142 37zM413.5 149.5q51.5 29.5 81 81.5t29.5 119t-29.5 119t-81 81.5t-113.5 29.5t-113.5 -29.5t-81 -81.5t-29.5 -119t29.5 -119
t81 -81.5t113.5 -29.5t113.5 29.5zM221.5 211.5q-35.5 20.5 -55 57t-19.5 81.5t20 81.5t55.5 57t78.5 20.5q59 0 96.5 -30t45.5 -81h-57q-7 27 -29 43t-56 16q-41 0 -68.5 -28t-27.5 -79t28 -79t68 -28q35 0 55 15t30 44h57q-11 -51 -48 -81t-94 -30q-44 0 -79.5 20.5z" />
    <glyph glyph-name="ordfeminine" unicode="&#xaa;" 
d="M199 368q-39 25 -61 66.5t-22 90.5t23 91t62.5 66.5t87.5 24.5q79 0 124 -52v45h60v-350h-60v58q-46 -65 -126 -65q-49 0 -88 25zM378.5 437.5q34.5 34.5 34.5 87.5q0 54 -34.5 88t-81.5 34q-48 0 -81.5 -34t-33.5 -88t33.5 -88t81.5 -34q47 0 81.5 34.5z" />
    <glyph glyph-name="guillemotleft" unicode="&#xab;" 
d="M269 286v8l156 223h91l-155 -227l155 -227h-91zM69 286v8l156 223h91l-155 -227l155 -227h-91z" />
    <glyph glyph-name="logicalnot" unicode="&#xac;" 
d="M467 315h-402v70h472v-241h-70v171z" />
    <glyph glyph-name="uni00AD" unicode="&#xad;" 
d="M160 370h280v-70h-280v70z" />
    <glyph glyph-name="registered" unicode="&#xae;" 
d="M372.5 685.5q33.5 -19.5 53 -53t19.5 -72.5t-19.5 -72.5t-53 -53t-72.5 -19.5t-72.5 19.5t-53 53t-19.5 72.5t19.5 72.5t53 53t72.5 19.5t72.5 -19.5zM383 477q34 34 34 83t-34 83t-83 34t-83 -34t-34 -83t34 -83t83 -34t83 34zM329 549l33 -64h-28l-32 60h-24v-60h-26
v150h55q23 0 36 -12t13 -33q0 -30 -27 -41zM278 568h28q11 0 17.5 6t6.5 16t-6.5 16t-17.5 6h-28v-44z" />
    <glyph glyph-name="macron" unicode="&#xaf;" 
d="M168 670h264v-66h-264v66z" />
    <glyph glyph-name="degree" unicode="&#xb0;" 
d="M191 456.5q-43 42.5 -43 107.5t43 107.5t109 42.5t109 -42.5t43 -107.5t-43 -107.5t-109 -42.5t-109 42.5zM363 499q25 25 25 65t-25 65t-63 25t-63 -25t-25 -65t25 -65t63 -25t63 25z" />
    <glyph glyph-name="plusminus" unicode="&#xb1;" 
d="M536 355h-201v-201h-70v201h-201v70h201v201h70v-201h201v-70zM64 70h472v-70h-472v70z" />
    <glyph glyph-name="uni00B2" unicode="&#xb2;" 
d="M208 397l122 125q20 21 29.5 38.5t9.5 37.5q0 22 -13.5 36t-34.5 14q-23 0 -36.5 -14t-15.5 -37h-61q2 49 32.5 79.5t81.5 30.5t81 -29.5t30 -76.5q0 -32 -13.5 -58.5t-44.5 -57.5l-73 -76h135v-59h-229v47z" />
    <glyph glyph-name="uni00B3" unicode="&#xb3;" 
d="M225 376.5q-32 33.5 -32 81.5h63q2 -26 17 -41t41 -15q27 0 42.5 14t15.5 39q0 24 -16 37.5t-43 13.5h-19v51h19q23 0 37.5 12.5t14.5 33.5t-13.5 33.5t-38.5 12.5q-22 0 -37 -13t-17 -34h-61q2 44 33.5 74.5t81.5 30.5q53 0 83.5 -27t30.5 -70q0 -24 -13 -44.5
t-32 -31.5q24 -9 39.5 -30t15.5 -51q0 -48 -34.5 -79t-88.5 -31q-57 0 -89 33.5z" />
    <glyph glyph-name="acute" unicode="&#xb4;" 
d="M274 700h124l-118 -133h-78z" />
    <glyph glyph-name="uni00B5" unicode="&#xb5;" 
d="M74 494h82v-308q0 -59 33.5 -93.5t85.5 -34.5q51 0 85 34.5t34 93.5v308h82v-357q0 -31 14.5 -46t44.5 -15h25v-76h-43q-42 0 -71 18.5t-42 53.5q-27 -41 -63.5 -63.5t-89.5 -22.5q-28 0 -53 8.5t-42 23.5v-218h-82v694z" />
    <glyph glyph-name="paragraph" unicode="&#xb6;" 
d="M286 276h-16q-63 0 -113 26t-79 74t-29 112q0 63 29 111t79.5 74.5t112.5 26.5h102v-820h-86v396zM444 700h86v-820h-86v820z" />
    <glyph glyph-name="periodcentered" unicode="&#xb7;" 
d="M248 298q-21 21 -21 52t21 52t52 21t52 -21t21 -52t-21 -52t-52 -21t-52 21z" />
    <glyph glyph-name="cedilla" unicode="&#xb8;" 
d="M365 -76q23 -23 23 -61q0 -47 -30.5 -69t-76.5 -22q-42 0 -69 10v52q28 -10 57 -10q56 0 56 40q0 18 -13.5 28.5t-35.5 10.5h-64v20l35 102h57l-25 -80q18 2 28 2q35 0 58 -23z" />
    <glyph glyph-name="uni00B9" unicode="&#xb9;" 
d="M281 640h-73v60h137v-350h-64v290z" />
    <glyph glyph-name="ordmasculine" unicode="&#xba;" 
d="M205.5 367q-41.5 24 -64.5 66t-23 92t23 92t64.5 66t94.5 24q52 0 93.5 -24t64.5 -66t23 -92t-23 -92t-64.5 -66t-93.5 -24q-53 0 -94.5 24zM381.5 437q33.5 34 33.5 88t-33.5 88t-81.5 34q-49 0 -82.5 -34t-33.5 -88t33.5 -88t82.5 -34q48 0 81.5 34z" />
    <glyph glyph-name="guillemotright" unicode="&#xbb;" 
d="M439 290l-155 227h91l156 -223v-8l-156 -223h-91zM239 290l-155 227h91l156 -223v-8l-156 -223h-91z" />
    <glyph glyph-name="onequarter" unicode="&#xbc;" 
d="M121 700h-73v60h137v-350h-64v290zM33 200l500 348l34 -48l-500 -348zM419 6h-155v39l149 225h70v-215h57v-49h-57v-86h-64v86zM419 55v99q0 15 2 33l-86 -132h84z" />
    <glyph glyph-name="onehalf" unicode="&#xbd;" 
d="M121 700h-73v60h137v-350h-64v290zM33 200l500 348l34 -48l-500 -348zM317 -33l122 125q20 21 29.5 38.5t9.5 37.5q0 22 -13.5 36t-34.5 14q-23 0 -36.5 -14t-15.5 -37h-61q2 49 32.5 79.5t81.5 30.5t81 -29.5t30 -76.5q0 -32 -13.5 -58.5t-44.5 -57.5l-73 -76h135v-59
h-229v47z" />
    <glyph glyph-name="threequarters" unicode="&#xbe;" 
d="M65 436.5q-32 33.5 -32 81.5h63q2 -26 17 -41t41 -15q27 0 42.5 14t15.5 39q0 24 -16 37.5t-43 13.5h-19v51h19q23 0 37.5 12.5t14.5 33.5t-13.5 33.5t-38.5 12.5q-22 0 -37 -13t-17 -34h-61q2 44 33.5 74.5t81.5 30.5q53 0 83.5 -27t30.5 -70q0 -24 -13 -44.5t-32 -31.5
q24 -9 39.5 -30t15.5 -51q0 -48 -34.5 -79t-88.5 -31q-57 0 -89 33.5zM33 200l500 348l34 -48l-500 -348zM419 6h-155v39l149 225h70v-215h57v-49h-57v-86h-64v86zM419 55v99q0 15 2 33l-86 -132h84z" />
    <glyph glyph-name="questiondown" unicode="&#xbf;" 
d="M347 487q21 -21 21 -52t-21 -52t-52 -21t-52 21t-21 52t21 52t52 21t52 -21zM335 247q0 -56 -20.5 -90t-76.5 -70q-41 -27 -58.5 -53t-17.5 -67q0 -48 38.5 -77t97.5 -29q66 0 104.5 37.5t43.5 97.5h78q-1 -58 -29 -106t-79 -76.5t-118 -28.5q-61 0 -109.5 23.5t-75.5 64
t-27 87.5q0 62 24 102.5t78 73.5q45 27 60 52t15 62v19h72v-22z" />
    <glyph glyph-name="Agrave" unicode="&#xc0;" 
d="M440 182h-280l-59 -182h-89l239 700h99l238 -700h-89zM415 260l-96 295l-19 58q-3 -10 -18 -58l-96 -295h229zM143 906h124l72 -133h-78z" />
    <glyph glyph-name="Aacute" unicode="&#xc1;" 
d="M440 182h-280l-59 -182h-89l239 700h99l238 -700h-89zM415 260l-96 295l-19 58q-3 -10 -18 -58l-96 -295h229zM333 906h124l-118 -133h-78z" />
    <glyph glyph-name="Acircumflex" unicode="&#xc2;" 
d="M440 182h-280l-59 -182h-89l239 700h99l238 -700h-89zM415 260l-96 295l-19 58q-3 -10 -18 -58l-96 -295h229zM259 906h82l111 -133h-78l-74 65l-74 -65h-78z" />
    <glyph glyph-name="Atilde" unicode="&#xc3;" 
d="M440 182h-280l-59 -182h-89l239 700h99l238 -700h-89zM415 260l-96 295l-19 58q-3 -10 -18 -58l-96 -295h229zM333.5 786q-20.5 9 -48.5 26q-21 12 -32 17.5t-23 5.5q-21 0 -34.5 -14t-13.5 -36h-72q0 52 29 86.5t79 34.5q28 0 48.5 -9t48.5 -26q21 -12 32 -17.5t23 -5.5
q21 0 34.5 14t13.5 36h72q0 -52 -29 -86.5t-79 -34.5q-28 0 -48.5 9z" />
    <glyph glyph-name="Adieresis" unicode="&#xc4;" 
d="M440 182h-280l-59 -182h-89l239 700h99l238 -700h-89zM415 260l-96 295l-19 58q-3 -10 -18 -58l-96 -295h229zM167 802q-18 18 -18 43q0 26 18 43.5t43 17.5q26 0 43.5 -17.5t17.5 -43.5t-17.5 -43.5t-43.5 -17.5q-25 0 -43 18zM346.5 802q-17.5 18 -17.5 43
q0 26 17.5 43.5t43.5 17.5t43.5 -17.5t17.5 -43.5q0 -25 -18 -43t-43 -18q-26 0 -43.5 18z" />
    <glyph glyph-name="Aring" unicode="&#xc5;" 
d="M440 182h-280l-59 -182h-89l239 700h99l238 -700h-89zM415 260l-96 295l-19 58q-3 -10 -18 -58l-96 -295h229zM215 801.5q-35 35.5 -35 84.5q0 50 35 85t85 35q49 0 84.5 -35t35.5 -85q0 -49 -35.5 -84.5t-84.5 -35.5q-50 0 -85 35.5zM349.5 836.5q20.5 20.5 20.5 49.5
t-20.5 49.5t-49.5 20.5t-49.5 -20.5t-20.5 -49.5t20.5 -49.5t49.5 -20.5t49.5 20.5z" />
    <glyph glyph-name="AE" unicode="&#xc6;" 
d="M578 78v-78h-284v182h-150l-63 -182h-89l249 700h334v-78h-195v-211h163v-78h-163v-255h198zM294 260v362q-3 -11 -23 -71l-100 -291h123z" />
    <glyph glyph-name="Ccedilla" unicode="&#xc7;" 
d="M488 62q-61 -68 -159 -75l-13 -42q18 2 28 2q35 0 58 -23t23 -61q0 -47 -30.5 -69t-76.5 -22q-42 0 -69 10v52q28 -10 57 -10q56 0 56 40q0 18 -13.5 28.5t-35.5 10.5h-64v20l22 65q-105 14 -170 105t-65 257q0 121 37 203t98.5 121.5t135.5 39.5q113 0 179 -68.5
t75 -189.5h-85q-9 85 -53.5 132.5t-115.5 47.5q-48 0 -90 -29.5t-68.5 -94t-26.5 -162.5t26.5 -162.5t68.5 -94t90 -29.5q73 0 113.5 46t55.5 135h86q-13 -115 -74 -183z" />
    <glyph glyph-name="Egrave" unicode="&#xc8;" 
d="M74 700h451v-78h-365v-211h323v-78h-323v-255h368v-78h-454v700zM143 906h124l72 -133h-78z" />
    <glyph glyph-name="Eacute" unicode="&#xc9;" 
d="M74 700h451v-78h-365v-211h323v-78h-323v-255h368v-78h-454v700zM333 906h124l-118 -133h-78z" />
    <glyph glyph-name="Ecircumflex" unicode="&#xca;" 
d="M74 700h451v-78h-365v-211h323v-78h-323v-255h368v-78h-454v700zM259 906h82l111 -133h-78l-74 65l-74 -65h-78z" />
    <glyph glyph-name="Edieresis" unicode="&#xcb;" 
d="M74 700h451v-78h-365v-211h323v-78h-323v-255h368v-78h-454v700zM167 802q-18 18 -18 43q0 26 18 43.5t43 17.5q26 0 43.5 -17.5t17.5 -43.5t-17.5 -43.5t-43.5 -17.5q-25 0 -43 18zM346.5 802q-17.5 18 -17.5 43q0 26 17.5 43.5t43.5 17.5t43.5 -17.5t17.5 -43.5
q0 -25 -18 -43t-43 -18q-26 0 -43.5 18z" />
    <glyph glyph-name="Igrave" unicode="&#xcc;" 
d="M82 78h175v544h-175v78h436v-78h-175v-544h175v-78h-436v78zM143 906h124l72 -133h-78z" />
    <glyph glyph-name="Iacute" unicode="&#xcd;" 
d="M82 78h175v544h-175v78h436v-78h-175v-544h175v-78h-436v78zM333 906h124l-118 -133h-78z" />
    <glyph glyph-name="Icircumflex" unicode="&#xce;" 
d="M82 78h175v544h-175v78h436v-78h-175v-544h175v-78h-436v78zM259 906h82l111 -133h-78l-74 65l-74 -65h-78z" />
    <glyph glyph-name="Idieresis" unicode="&#xcf;" 
d="M82 78h175v544h-175v78h436v-78h-175v-544h175v-78h-436v78zM167 802q-18 18 -18 43q0 26 18 43.5t43 17.5q26 0 43.5 -17.5t17.5 -43.5t-17.5 -43.5t-43.5 -17.5q-25 0 -43 18zM346.5 802q-17.5 18 -17.5 43q0 26 17.5 43.5t43.5 17.5t43.5 -17.5t17.5 -43.5
q0 -25 -18 -43t-43 -18q-26 0 -43.5 18z" />
    <glyph glyph-name="Eth" unicode="&#xd0;" 
d="M391 658.5q71 -41.5 111.5 -121t40.5 -187.5t-40.5 -187.5t-111.5 -121t-161 -41.5h-170v314h-60v72h60v314h170q90 0 161 -41.5zM343.5 109.5q52.5 31.5 82.5 92.5t30 148t-30 148t-82.5 92.5t-119.5 31.5h-78v-236h141v-72h-141v-236h78q67 0 119.5 31.5z" />
    <glyph glyph-name="Ntilde" unicode="&#xd1;" 
d="M65 700h84l307 -552q-5 58 -5 94v458h84v-700h-84l-308 552q1 -10 3.5 -38.5t2.5 -55.5v-458h-84v700zM333.5 786q-20.5 9 -48.5 26q-21 12 -32 17.5t-23 5.5q-21 0 -34.5 -14t-13.5 -36h-72q0 52 29 86.5t79 34.5q28 0 48.5 -9t48.5 -26q21 -12 32 -17.5t23 -5.5
q21 0 34.5 14t13.5 36h72q0 -52 -29 -86.5t-79 -34.5q-28 0 -48.5 9z" />
    <glyph glyph-name="Ograve" unicode="&#xd2;" 
d="M161 27.5q-61 41.5 -96 123.5t-35 199t35 199t96 123.5t139 41.5t139 -41.5t96 -123.5t35 -199t-35 -199t-96 -123.5t-139 -41.5t-139 41.5zM435 137.5q48 73.5 48 212.5t-48 212.5t-135 73.5t-135 -73.5t-48 -212.5t48 -212.5t135 -73.5t135 73.5zM143 906h124l72 -133
h-78z" />
    <glyph glyph-name="Oacute" unicode="&#xd3;" 
d="M161 27.5q-61 41.5 -96 123.5t-35 199t35 199t96 123.5t139 41.5t139 -41.5t96 -123.5t35 -199t-35 -199t-96 -123.5t-139 -41.5t-139 41.5zM435 137.5q48 73.5 48 212.5t-48 212.5t-135 73.5t-135 -73.5t-48 -212.5t48 -212.5t135 -73.5t135 73.5zM333 906h124
l-118 -133h-78z" />
    <glyph glyph-name="Ocircumflex" unicode="&#xd4;" 
d="M161 27.5q-61 41.5 -96 123.5t-35 199t35 199t96 123.5t139 41.5t139 -41.5t96 -123.5t35 -199t-35 -199t-96 -123.5t-139 -41.5t-139 41.5zM435 137.5q48 73.5 48 212.5t-48 212.5t-135 73.5t-135 -73.5t-48 -212.5t48 -212.5t135 -73.5t135 73.5zM259 906h82l111 -133
h-78l-74 65l-74 -65h-78z" />
    <glyph glyph-name="Otilde" unicode="&#xd5;" 
d="M161 27.5q-61 41.5 -96 123.5t-35 199t35 199t96 123.5t139 41.5t139 -41.5t96 -123.5t35 -199t-35 -199t-96 -123.5t-139 -41.5t-139 41.5zM435 137.5q48 73.5 48 212.5t-48 212.5t-135 73.5t-135 -73.5t-48 -212.5t48 -212.5t135 -73.5t135 73.5zM333.5 786
q-20.5 9 -48.5 26q-21 12 -32 17.5t-23 5.5q-21 0 -34.5 -14t-13.5 -36h-72q0 52 29 86.5t79 34.5q28 0 48.5 -9t48.5 -26q21 -12 32 -17.5t23 -5.5q21 0 34.5 14t13.5 36h72q0 -52 -29 -86.5t-79 -34.5q-28 0 -48.5 9z" />
    <glyph glyph-name="Odieresis" unicode="&#xd6;" 
d="M161 27.5q-61 41.5 -96 123.5t-35 199t35 199t96 123.5t139 41.5t139 -41.5t96 -123.5t35 -199t-35 -199t-96 -123.5t-139 -41.5t-139 41.5zM435 137.5q48 73.5 48 212.5t-48 212.5t-135 73.5t-135 -73.5t-48 -212.5t48 -212.5t135 -73.5t135 73.5zM167 802
q-18 18 -18 43q0 26 18 43.5t43 17.5q26 0 43.5 -17.5t17.5 -43.5t-17.5 -43.5t-43.5 -17.5q-25 0 -43 18zM346.5 802q-17.5 18 -17.5 43q0 26 17.5 43.5t43.5 17.5t43.5 -17.5t17.5 -43.5q0 -25 -18 -43t-43 -18q-26 0 -43.5 18z" />
    <glyph glyph-name="multiply" unicode="&#xd7;" 
d="M80 180l170 170l-170 170l50 50l170 -170l170 170l50 -50l-170 -170l170 -170l-50 -50l-170 170l-170 -170z" />
    <glyph glyph-name="Oslash" unicode="&#xd8;" 
d="M545 523.5q25 -74.5 25 -173.5q0 -117 -35 -199t-96 -123.5t-139 -41.5q-61 0 -110 25l-32 -71h-84l52 116q-46 46 -71 120.5t-25 173.5q0 117 35 199t96 123.5t139 41.5q61 0 110 -25l32 71h84l-52 -116q46 -46 71 -120.5zM164 140l214 477q-34 19 -78 19
q-87 0 -135 -73.5t-48 -212.5q0 -137 47 -210zM435 137.5q48 73.5 48 212.5q0 137 -47 210l-214 -477q34 -19 78 -19q87 0 135 73.5z" />
    <glyph glyph-name="Ugrave" unicode="&#xd9;" 
d="M176.5 17.5q-55.5 31.5 -88 90.5t-32.5 139v453h86v-464q0 -77 44 -124.5t114 -47.5t114 48t44 124v464h86v-453q0 -80 -32.5 -139t-88 -90.5t-123.5 -31.5t-123.5 31.5zM143 906h124l72 -133h-78z" />
    <glyph glyph-name="Uacute" unicode="&#xda;" 
d="M176.5 17.5q-55.5 31.5 -88 90.5t-32.5 139v453h86v-464q0 -77 44 -124.5t114 -47.5t114 48t44 124v464h86v-453q0 -80 -32.5 -139t-88 -90.5t-123.5 -31.5t-123.5 31.5zM333 906h124l-118 -133h-78z" />
    <glyph glyph-name="Ucircumflex" unicode="&#xdb;" 
d="M176.5 17.5q-55.5 31.5 -88 90.5t-32.5 139v453h86v-464q0 -77 44 -124.5t114 -47.5t114 48t44 124v464h86v-453q0 -80 -32.5 -139t-88 -90.5t-123.5 -31.5t-123.5 31.5zM259 906h82l111 -133h-78l-74 65l-74 -65h-78z" />
    <glyph glyph-name="Udieresis" unicode="&#xdc;" 
d="M176.5 17.5q-55.5 31.5 -88 90.5t-32.5 139v453h86v-464q0 -77 44 -124.5t114 -47.5t114 48t44 124v464h86v-453q0 -80 -32.5 -139t-88 -90.5t-123.5 -31.5t-123.5 31.5zM167 802q-18 18 -18 43q0 26 18 43.5t43 17.5q26 0 43.5 -17.5t17.5 -43.5t-17.5 -43.5
t-43.5 -17.5q-25 0 -43 18zM346.5 802q-17.5 18 -17.5 43q0 26 17.5 43.5t43.5 17.5t43.5 -17.5t17.5 -43.5q0 -25 -18 -43t-43 -18q-26 0 -43.5 18z" />
    <glyph glyph-name="Yacute" unicode="&#xdd;" 
d="M257 281l-228 419h98l147 -283q14 -26 26 -56q12 30 26 56l147 283h98l-228 -419v-281h-86v281zM333 906h124l-118 -133h-78z" />
    <glyph glyph-name="Thorn" unicode="&#xde;" 
d="M60 700h86v-138h166q63 0 113.5 -26t79 -74.5t28.5 -111.5q0 -64 -28.5 -112t-79 -74t-113.5 -26h-166v-138h-86v700zM307 214q62 0 101 36.5t39 99.5t-39 99.5t-101 36.5h-161v-272h161z" />
    <glyph glyph-name="germandbls" unicode="&#xdf;" 
d="M114 531q0 56 26 97.5t69.5 63.5t94.5 22q88 0 138 -47t50 -126q0 -45 -25 -83t-61 -57q62 -20 100.5 -67t38.5 -124q0 -62 -28 -109.5t-79 -74t-118 -26.5h-62v76h62q62 0 102.5 37.5t40.5 98.5t-40.5 98.5t-102.5 37.5h-62v75h36q51 0 84.5 31.5t33.5 80.5
q0 48 -30 76.5t-78 28.5q-46 0 -77 -29.5t-31 -79.5v-531h-82v531z" />
    <glyph glyph-name="agrave" unicode="&#xe0;" 
d="M164 20.5q-57 34.5 -89.5 94t-32.5 132.5q0 72 34 132t91.5 94.5t124.5 34.5q62 0 109.5 -23.5t76.5 -62.5v72h76v-494h-76v85q-29 -45 -77 -72t-111 -27q-69 0 -126 34.5zM388.5 83.5q40.5 23.5 65 66t24.5 97.5t-24.5 97.5t-65 66t-87.5 23.5q-49 0 -89.5 -23t-64 -66
t-23.5 -98t23.5 -98t64 -66t89.5 -23q47 0 87.5 23.5zM143 700h124l72 -133h-78z" />
    <glyph glyph-name="aacute" unicode="&#xe1;" 
d="M164 20.5q-57 34.5 -89.5 94t-32.5 132.5q0 72 34 132t91.5 94.5t124.5 34.5q62 0 109.5 -23.5t76.5 -62.5v72h76v-494h-76v85q-29 -45 -77 -72t-111 -27q-69 0 -126 34.5zM388.5 83.5q40.5 23.5 65 66t24.5 97.5t-24.5 97.5t-65 66t-87.5 23.5q-49 0 -89.5 -23t-64 -66
t-23.5 -98t23.5 -98t64 -66t89.5 -23q47 0 87.5 23.5zM333 700h124l-118 -133h-78z" />
    <glyph glyph-name="acircumflex" unicode="&#xe2;" 
d="M164 20.5q-57 34.5 -89.5 94t-32.5 132.5q0 72 34 132t91.5 94.5t124.5 34.5q62 0 109.5 -23.5t76.5 -62.5v72h76v-494h-76v85q-29 -45 -77 -72t-111 -27q-69 0 -126 34.5zM388.5 83.5q40.5 23.5 65 66t24.5 97.5t-24.5 97.5t-65 66t-87.5 23.5q-49 0 -89.5 -23t-64 -66
t-23.5 -98t23.5 -98t64 -66t89.5 -23q47 0 87.5 23.5zM259 700h82l111 -133h-78l-74 65l-74 -65h-78z" />
    <glyph glyph-name="atilde" unicode="&#xe3;" 
d="M164 20.5q-57 34.5 -89.5 94t-32.5 132.5q0 72 34 132t91.5 94.5t124.5 34.5q62 0 109.5 -23.5t76.5 -62.5v72h76v-494h-76v85q-29 -45 -77 -72t-111 -27q-69 0 -126 34.5zM388.5 83.5q40.5 23.5 65 66t24.5 97.5t-24.5 97.5t-65 66t-87.5 23.5q-49 0 -89.5 -23t-64 -66
t-23.5 -98t23.5 -98t64 -66t89.5 -23q47 0 87.5 23.5zM333.5 580q-20.5 9 -48.5 26q-21 12 -32 17.5t-23 5.5q-21 0 -34.5 -14t-13.5 -36h-72q0 52 29 86.5t79 34.5q28 0 48.5 -9t48.5 -26q21 -12 32 -17.5t23 -5.5q21 0 34.5 14t13.5 36h72q0 -52 -29 -86.5t-79 -34.5
q-28 0 -48.5 9z" />
    <glyph glyph-name="adieresis" unicode="&#xe4;" 
d="M164 20.5q-57 34.5 -89.5 94t-32.5 132.5q0 72 34 132t91.5 94.5t124.5 34.5q62 0 109.5 -23.5t76.5 -62.5v72h76v-494h-76v85q-29 -45 -77 -72t-111 -27q-69 0 -126 34.5zM388.5 83.5q40.5 23.5 65 66t24.5 97.5t-24.5 97.5t-65 66t-87.5 23.5q-49 0 -89.5 -23t-64 -66
t-23.5 -98t23.5 -98t64 -66t89.5 -23q47 0 87.5 23.5zM167 596q-18 18 -18 43q0 26 18 43.5t43 17.5q26 0 43.5 -17.5t17.5 -43.5t-17.5 -43.5t-43.5 -17.5q-25 0 -43 18zM346.5 596q-17.5 18 -17.5 43q0 26 17.5 43.5t43.5 17.5t43.5 -17.5t17.5 -43.5q0 -25 -18 -43
t-43 -18q-26 0 -43.5 18z" />
    <glyph glyph-name="aring" unicode="&#xe5;" 
d="M164 20.5q-57 34.5 -89.5 94t-32.5 132.5q0 72 34 132t91.5 94.5t124.5 34.5q62 0 109.5 -23.5t76.5 -62.5v72h76v-494h-76v85q-29 -45 -77 -72t-111 -27q-69 0 -126 34.5zM388.5 83.5q40.5 23.5 65 66t24.5 97.5t-24.5 97.5t-65 66t-87.5 23.5q-49 0 -89.5 -23t-64 -66
t-23.5 -98t23.5 -98t64 -66t89.5 -23q47 0 87.5 23.5zM215 595.5q-35 35.5 -35 84.5q0 50 35 85t85 35q49 0 84.5 -35t35.5 -85q0 -49 -35.5 -84.5t-84.5 -35.5q-50 0 -85 35.5zM349.5 630.5q20.5 20.5 20.5 49.5t-20.5 49.5t-49.5 20.5t-49.5 -20.5t-20.5 -49.5t20.5 -49.5
t49.5 -20.5t49.5 20.5z" />
    <glyph glyph-name="ae" unicode="&#xe6;" 
d="M588 234h-249q0 -81 24.5 -128.5t62.5 -47.5q28 0 48 29t27 76h78q-9 -81 -47.5 -129t-96.5 -48q-27 0 -57 16t-40 42v-44h-76v45q-15 -29 -39.5 -44t-64.5 -15q-38 0 -71.5 25.5t-55 84t-21.5 151.5t23 151.5t58 84t72 25.5q35 0 58 -13t41 -36v35h76v-42q14 24 43 40
t61 16q146 0 146 -242v-32zM509 300q-3 69 -23.5 103.5t-54.5 34.5q-33 0 -57 -36.5t-32 -101.5h167zM239 105.5q23 45.5 23 141.5t-23 141.5t-62 45.5q-40 0 -62.5 -45.5t-22.5 -141.5t22.5 -141.5t62.5 -45.5q39 0 62 45.5z" />
    <glyph glyph-name="ccedilla" unicode="&#xe7;" 
d="M409 87q38 27 54 76h82q-18 -78 -72.5 -124.5t-140.5 -51.5l-13 -42q18 2 28 2q35 0 58 -23t23 -61q0 -47 -30.5 -69t-76.5 -22q-42 0 -69 10v52q28 -10 57 -10q56 0 56 40q0 18 -13.5 28.5t-35.5 10.5h-64v20l22 65q-62 8 -111 43.5t-76.5 91.5t-27.5 124q0 74 33 133.5
t90.5 93.5t128.5 34q97 0 158.5 -47.5t75.5 -129.5h-82q-14 46 -54 74.5t-98 28.5q-47 0 -85.5 -23t-61.5 -65.5t-23 -98.5t23 -98.5t62 -65.5t85 -23q60 0 98 27z" />
    <glyph glyph-name="egrave" unicode="&#xe8;" 
d="M549 234h-409q0 -54 22.5 -94t60.5 -61t84 -21q59 0 99 29t56 76h78q-22 -80 -83.5 -128.5t-149.5 -48.5q-72 0 -129 33.5t-88.5 93t-31.5 134.5t32.5 134.5t89.5 93t126 33.5q73 0 128 -30.5t85 -86.5t30 -131v-26zM201 401.5q-43 -36.5 -56 -101.5h324q-8 64 -52 101
t-112 37q-61 0 -104 -36.5zM149 700h124l72 -133h-78z" />
    <glyph glyph-name="eacute" unicode="&#xe9;" 
d="M549 234h-409q0 -54 22.5 -94t60.5 -61t84 -21q59 0 99 29t56 76h78q-22 -80 -83.5 -128.5t-149.5 -48.5q-72 0 -129 33.5t-88.5 93t-31.5 134.5t32.5 134.5t89.5 93t126 33.5q73 0 128 -30.5t85 -86.5t30 -131v-26zM201 401.5q-43 -36.5 -56 -101.5h324q-8 64 -52 101
t-112 37q-61 0 -104 -36.5zM339 700h124l-118 -133h-78z" />
    <glyph glyph-name="ecircumflex" unicode="&#xea;" 
d="M549 234h-409q0 -54 22.5 -94t60.5 -61t84 -21q59 0 99 29t56 76h78q-22 -80 -83.5 -128.5t-149.5 -48.5q-72 0 -129 33.5t-88.5 93t-31.5 134.5t32.5 134.5t89.5 93t126 33.5q73 0 128 -30.5t85 -86.5t30 -131v-26zM201 401.5q-43 -36.5 -56 -101.5h324q-8 64 -52 101
t-112 37q-61 0 -104 -36.5zM265 700h82l111 -133h-78l-74 65l-74 -65h-78z" />
    <glyph glyph-name="edieresis" unicode="&#xeb;" 
d="M549 234h-409q0 -54 22.5 -94t60.5 -61t84 -21q59 0 99 29t56 76h78q-22 -80 -83.5 -128.5t-149.5 -48.5q-72 0 -129 33.5t-88.5 93t-31.5 134.5t32.5 134.5t89.5 93t126 33.5q73 0 128 -30.5t85 -86.5t30 -131v-26zM201 401.5q-43 -36.5 -56 -101.5h324q-8 64 -52 101
t-112 37q-61 0 -104 -36.5zM173 596q-18 18 -18 43q0 26 18 43.5t43 17.5q26 0 43.5 -17.5t17.5 -43.5t-17.5 -43.5t-43.5 -17.5q-25 0 -43 18zM352.5 596q-17.5 18 -17.5 43q0 26 17.5 43.5t43.5 17.5t43.5 -17.5t17.5 -43.5q0 -25 -18 -43t-43 -18q-26 0 -43.5 18z" />
    <glyph glyph-name="igrave" unicode="&#xec;" 
d="M83 76h176v342h-146v76h228v-418h177v-76h-435v76zM143 700h124l72 -133h-78z" />
    <glyph glyph-name="iacute" unicode="&#xed;" 
d="M83 76h176v342h-146v76h228v-418h177v-76h-435v76zM333 700h124l-118 -133h-78z" />
    <glyph glyph-name="icircumflex" unicode="&#xee;" 
d="M83 76h176v342h-146v76h228v-418h177v-76h-435v76zM259 700h82l111 -133h-78l-74 65l-74 -65h-78z" />
    <glyph glyph-name="idieresis" unicode="&#xef;" 
d="M83 76h176v342h-146v76h228v-418h177v-76h-435v76zM167 596q-18 18 -18 43q0 26 18 43.5t43 17.5q26 0 43.5 -17.5t17.5 -43.5t-17.5 -43.5t-43.5 -17.5q-25 0 -43 18zM346.5 596q-17.5 18 -17.5 43q0 26 17.5 43.5t43.5 17.5t43.5 -17.5t17.5 -43.5q0 -25 -18 -43
t-43 -18q-26 0 -43.5 18z" />
    <glyph glyph-name="eth" unicode="&#xf0;" 
d="M510.5 435.5q33.5 -81.5 33.5 -173.5q0 -129 -65 -202.5t-179 -73.5q-68 0 -123 31t-87 85.5t-32 122.5q0 65 32 118t84.5 83t110.5 30q53 0 95.5 -19t69.5 -51q-34 90 -106 159l-128 -62l-31 63l99 48q-48 35 -106 56l36 64q79 -28 148 -82l107 52l31 -63l-83 -40
q60 -64 93.5 -145.5zM382 80q37 20 58.5 56.5t21.5 84.5t-21.5 84.5t-58.5 56.5t-82 20t-81.5 -20t-57.5 -56.5t-21 -84.5t21 -84.5t57.5 -56.5t81.5 -20t82 20z" />
    <glyph glyph-name="ntilde" unicode="&#xf1;" 
d="M104 494h77v-73q19 40 58.5 63.5t99.5 23.5q82 0 128.5 -54.5t46.5 -140.5v-313h-82v300q0 64 -34 100t-89 36t-89 -36t-34 -100v-300h-82v494zM350.5 580q-20.5 9 -48.5 26q-21 12 -32 17.5t-23 5.5q-21 0 -34.5 -14t-13.5 -36h-72q0 52 29 86.5t79 34.5q28 0 48.5 -9
t48.5 -26q21 -12 32 -17.5t23 -5.5q21 0 34.5 14t13.5 36h72q0 -52 -29 -86.5t-79 -34.5q-28 0 -48.5 9z" />
    <glyph glyph-name="ograve" unicode="&#xf2;" 
d="M166.5 20.5q-59.5 34.5 -93.5 94t-34 132.5t34 132.5t93.5 94t133.5 34.5t133.5 -34.5t93.5 -94t34 -132.5t-34 -132.5t-93.5 -94t-133.5 -34.5t-133.5 34.5zM390 83q41 23 65 65.5t24 98.5t-24 98.5t-65 65.5t-90 23t-90 -23t-65 -65.5t-24 -98.5t24 -98.5t65 -65.5
t90 -23t90 23zM143 700h124l72 -133h-78z" />
    <glyph glyph-name="oacute" unicode="&#xf3;" 
d="M166.5 20.5q-59.5 34.5 -93.5 94t-34 132.5t34 132.5t93.5 94t133.5 34.5t133.5 -34.5t93.5 -94t34 -132.5t-34 -132.5t-93.5 -94t-133.5 -34.5t-133.5 34.5zM390 83q41 23 65 65.5t24 98.5t-24 98.5t-65 65.5t-90 23t-90 -23t-65 -65.5t-24 -98.5t24 -98.5t65 -65.5
t90 -23t90 23zM333 700h124l-118 -133h-78z" />
    <glyph glyph-name="ocircumflex" unicode="&#xf4;" 
d="M166.5 20.5q-59.5 34.5 -93.5 94t-34 132.5t34 132.5t93.5 94t133.5 34.5t133.5 -34.5t93.5 -94t34 -132.5t-34 -132.5t-93.5 -94t-133.5 -34.5t-133.5 34.5zM390 83q41 23 65 65.5t24 98.5t-24 98.5t-65 65.5t-90 23t-90 -23t-65 -65.5t-24 -98.5t24 -98.5t65 -65.5
t90 -23t90 23zM259 700h82l111 -133h-78l-74 65l-74 -65h-78z" />
    <glyph glyph-name="otilde" unicode="&#xf5;" 
d="M166.5 20.5q-59.5 34.5 -93.5 94t-34 132.5t34 132.5t93.5 94t133.5 34.5t133.5 -34.5t93.5 -94t34 -132.5t-34 -132.5t-93.5 -94t-133.5 -34.5t-133.5 34.5zM390 83q41 23 65 65.5t24 98.5t-24 98.5t-65 65.5t-90 23t-90 -23t-65 -65.5t-24 -98.5t24 -98.5t65 -65.5
t90 -23t90 23zM333.5 580q-20.5 9 -48.5 26q-21 12 -32 17.5t-23 5.5q-21 0 -34.5 -14t-13.5 -36h-72q0 52 29 86.5t79 34.5q28 0 48.5 -9t48.5 -26q21 -12 32 -17.5t23 -5.5q21 0 34.5 14t13.5 36h72q0 -52 -29 -86.5t-79 -34.5q-28 0 -48.5 9z" />
    <glyph glyph-name="odieresis" unicode="&#xf6;" 
d="M166.5 20.5q-59.5 34.5 -93.5 94t-34 132.5t34 132.5t93.5 94t133.5 34.5t133.5 -34.5t93.5 -94t34 -132.5t-34 -132.5t-93.5 -94t-133.5 -34.5t-133.5 34.5zM390 83q41 23 65 65.5t24 98.5t-24 98.5t-65 65.5t-90 23t-90 -23t-65 -65.5t-24 -98.5t24 -98.5t65 -65.5
t90 -23t90 23zM167 596q-18 18 -18 43q0 26 18 43.5t43 17.5q26 0 43.5 -17.5t17.5 -43.5t-17.5 -43.5t-43.5 -17.5q-25 0 -43 18zM346.5 596q-17.5 18 -17.5 43q0 26 17.5 43.5t43.5 17.5t43.5 -17.5t17.5 -43.5q0 -25 -18 -43t-43 -18q-26 0 -43.5 18z" />
    <glyph glyph-name="divide" unicode="&#xf7;" 
d="M259.5 493q-16.5 17 -16.5 41q0 25 16.5 41.5t41.5 16.5t41.5 -16.5t16.5 -41.5q0 -24 -16.5 -41t-41.5 -17t-41.5 17zM64 385h472v-70h-472v70zM259.5 125q-16.5 17 -16.5 41q0 25 16.5 41.5t41.5 16.5t41.5 -16.5t16.5 -41.5q0 -24 -16.5 -41t-41.5 -17t-41.5 17z" />
    <glyph glyph-name="oslash" unicode="&#xf8;" 
d="M536.5 361.5q24.5 -52.5 24.5 -114.5q0 -73 -34 -132.5t-93.5 -94t-133.5 -34.5q-57 0 -109 22l-39 -62h-82l62 98q-44 36 -68.5 88.5t-24.5 114.5q0 73 34 132.5t93.5 94t133.5 34.5q57 0 109 -22l39 62h82l-62 -98q44 -36 68.5 -88.5zM173 111l195 310q-30 13 -68 13
q-49 0 -90 -23t-65 -65.5t-24 -98.5q0 -84 52 -136zM390 83q41 23 65 65.5t24 98.5q0 84 -52 136l-195 -310q30 -13 68 -13q49 0 90 23z" />
    <glyph glyph-name="ugrave" unicode="&#xf9;" 
d="M132.5 40.5q-46.5 54.5 -46.5 140.5v313h82v-300q0 -64 34 -100t89 -36t89 36t34 100v300h82v-494h-77v73q-19 -40 -58.5 -63.5t-99.5 -23.5q-82 0 -128.5 54.5zM134 700h124l72 -133h-78z" />
    <glyph glyph-name="uacute" unicode="&#xfa;" 
d="M132.5 40.5q-46.5 54.5 -46.5 140.5v313h82v-300q0 -64 34 -100t89 -36t89 36t34 100v300h82v-494h-77v73q-19 -40 -58.5 -63.5t-99.5 -23.5q-82 0 -128.5 54.5zM324 700h124l-118 -133h-78z" />
    <glyph glyph-name="ucircumflex" unicode="&#xfb;" 
d="M132.5 40.5q-46.5 54.5 -46.5 140.5v313h82v-300q0 -64 34 -100t89 -36t89 36t34 100v300h82v-494h-77v73q-19 -40 -58.5 -63.5t-99.5 -23.5q-82 0 -128.5 54.5zM250 700h82l111 -133h-78l-74 65l-74 -65h-78z" />
    <glyph glyph-name="udieresis" unicode="&#xfc;" 
d="M132.5 40.5q-46.5 54.5 -46.5 140.5v313h82v-300q0 -64 34 -100t89 -36t89 36t34 100v300h82v-494h-77v73q-19 -40 -58.5 -63.5t-99.5 -23.5q-82 0 -128.5 54.5zM158 596q-18 18 -18 43q0 26 18 43.5t43 17.5q26 0 43.5 -17.5t17.5 -43.5t-17.5 -43.5t-43.5 -17.5
q-25 0 -43 18zM337.5 596q-17.5 18 -17.5 43q0 26 17.5 43.5t43.5 17.5t43.5 -17.5t17.5 -43.5q0 -25 -18 -43t-43 -18q-26 0 -43.5 18z" />
    <glyph glyph-name="yacute" unicode="&#xfd;" 
d="M68 -125h84q24 0 38 8.5t24 30.5l40 86l-217 494h91l150 -344q14 -32 20 -59l171 403h90l-266 -605q-20 -44 -49.5 -66.5t-76.5 -22.5h-99v75zM333 700h124l-118 -133h-78z" />
    <glyph glyph-name="thorn" unicode="&#xfe;" 
d="M48 700h82v-282q28 38 75 64t107 26q69 0 126 -34.5t89.5 -94t32.5 -132.5q0 -72 -34 -132t-91.5 -94.5t-124.5 -34.5q-62 0 -107.5 24.5t-72.5 61.5v-272h-82v900zM390.5 83q40.5 23 64 66t23.5 98t-23.5 98t-64 66t-89.5 23q-47 0 -87.5 -23.5t-65 -66t-24.5 -97.5
t24.5 -97.5t65 -66t87.5 -23.5q49 0 89.5 23z" />
    <glyph glyph-name="ydieresis" unicode="&#xff;" 
d="M68 -125h84q24 0 38 8.5t24 30.5l40 86l-217 494h91l150 -344q14 -32 20 -59l171 403h90l-266 -605q-20 -44 -49.5 -66.5t-76.5 -22.5h-99v75zM167 596q-18 18 -18 43q0 26 18 43.5t43 17.5q26 0 43.5 -17.5t17.5 -43.5t-17.5 -43.5t-43.5 -17.5q-25 0 -43 18zM346.5 596
q-17.5 18 -17.5 43q0 26 17.5 43.5t43.5 17.5t43.5 -17.5t17.5 -43.5q0 -25 -18 -43t-43 -18q-26 0 -43.5 18z" />
    <glyph glyph-name="Amacron" unicode="&#x100;" 
d="M440 182h-280l-59 -182h-89l239 700h99l238 -700h-89zM415 260l-96 295l-19 58q-3 -10 -18 -58l-96 -295h229zM168 876h264v-66h-264v66z" />
    <glyph glyph-name="amacron" unicode="&#x101;" 
d="M164 20.5q-57 34.5 -89.5 94t-32.5 132.5q0 72 34 132t91.5 94.5t124.5 34.5q62 0 109.5 -23.5t76.5 -62.5v72h76v-494h-76v85q-29 -45 -77 -72t-111 -27q-69 0 -126 34.5zM388.5 83.5q40.5 23.5 65 66t24.5 97.5t-24.5 97.5t-65 66t-87.5 23.5q-49 0 -89.5 -23t-64 -66
t-23.5 -98t23.5 -98t64 -66t89.5 -23q47 0 87.5 23.5zM168 670h264v-66h-264v66z" />
    <glyph glyph-name="Abreve" unicode="&#x102;" 
d="M440 182h-280l-59 -182h-89l239 700h99l238 -700h-89zM415 260l-96 295l-19 58q-3 -10 -18 -58l-96 -295h229zM209 816.5q-35 36.5 -35 89.5h58q0 -32 18.5 -52t49.5 -20t49.5 20t18.5 52h58q0 -53 -35 -89.5t-91 -36.5t-91 36.5z" />
    <glyph glyph-name="abreve" unicode="&#x103;" 
d="M164 20.5q-57 34.5 -89.5 94t-32.5 132.5q0 72 34 132t91.5 94.5t124.5 34.5q62 0 109.5 -23.5t76.5 -62.5v72h76v-494h-76v85q-29 -45 -77 -72t-111 -27q-69 0 -126 34.5zM388.5 83.5q40.5 23.5 65 66t24.5 97.5t-24.5 97.5t-65 66t-87.5 23.5q-49 0 -89.5 -23t-64 -66
t-23.5 -98t23.5 -98t64 -66t89.5 -23q47 0 87.5 23.5zM209 610.5q-35 36.5 -35 89.5h58q0 -32 18.5 -52t49.5 -20t49.5 20t18.5 52h58q0 -53 -35 -89.5t-91 -36.5t-91 36.5z" />
    <glyph glyph-name="Aogonek" unicode="&#x104;" 
d="M603 -120v-67q-32 -13 -70 -13q-41 0 -67.5 25.5t-26.5 67.5q0 34 17.5 62.5t44.5 44.5h-2l-59 182h-280l-59 -182h-89l239 700h99l238 -700q-71 -39 -71 -84q0 -21 12 -33t31 -12q22 0 43 9zM415 260l-96 295l-19 58q-3 -10 -18 -58l-96 -295h229z" />
    <glyph glyph-name="aogonek" unicode="&#x105;" 
d="M569 -120v-67q-32 -13 -70 -13q-41 0 -67.5 25.5t-26.5 67.5q0 38 21 68.5t52 44.5v79q-29 -45 -77 -72t-111 -27q-69 0 -126 34.5t-89.5 94t-32.5 132.5q0 72 34 132t91.5 94.5t124.5 34.5q62 0 109.5 -23.5t76.5 -62.5v72h76v-494q-71 -39 -71 -84q0 -21 12 -33t31 -12
q22 0 43 9zM388.5 83.5q40.5 23.5 65 66t24.5 97.5t-24.5 97.5t-65 66t-87.5 23.5q-49 0 -89.5 -23t-64 -66t-23.5 -98t23.5 -98t64 -66t89.5 -23q47 0 87.5 23.5z" />
    <glyph glyph-name="Cacute" unicode="&#x106;" 
d="M169 25.5q-61 39.5 -97 121.5t-36 203t37 203t98.5 121.5t135.5 39.5q113 0 179 -68.5t75 -189.5h-85q-9 85 -53.5 132.5t-115.5 47.5q-48 0 -90 -29.5t-68.5 -94t-26.5 -162.5t26.5 -162.5t68.5 -94t90 -29.5q73 0 113.5 46t55.5 135h86q-14 -121 -80.5 -190t-174.5 -69
q-77 0 -138 39.5zM339 906h124l-118 -133h-78z" />
    <glyph glyph-name="cacute" unicode="&#x107;" 
d="M181.5 20q-57.5 34 -90 93.5t-32.5 133.5t33 133.5t90.5 93.5t128.5 34q97 0 158.5 -47.5t75.5 -129.5h-82q-14 46 -54 74.5t-98 28.5q-47 0 -85.5 -23t-61.5 -65.5t-23 -98.5t23 -98.5t62 -65.5t85 -23q60 0 98 27t54 76h82q-18 -83 -79 -130t-155 -47q-72 0 -129.5 34z
M344 700h124l-118 -133h-78z" />
    <glyph glyph-name="Ccaron" unicode="&#x10c;" 
d="M169 25.5q-61 39.5 -97 121.5t-36 203t37 203t98.5 121.5t135.5 39.5q113 0 179 -68.5t75 -189.5h-85q-9 85 -53.5 132.5t-115.5 47.5q-48 0 -90 -29.5t-68.5 -94t-26.5 -162.5t26.5 -162.5t68.5 -94t90 -29.5q73 0 113.5 46t55.5 135h86q-14 -121 -80.5 -190t-174.5 -69
q-77 0 -138 39.5zM154 906h78l74 -65l74 65h78l-111 -133h-82z" />
    <glyph glyph-name="ccaron" unicode="&#x10d;" 
d="M181.5 20q-57.5 34 -90 93.5t-32.5 133.5t33 133.5t90.5 93.5t128.5 34q97 0 158.5 -47.5t75.5 -129.5h-82q-14 46 -54 74.5t-98 28.5q-47 0 -85.5 -23t-61.5 -65.5t-23 -98.5t23 -98.5t62 -65.5t85 -23q60 0 98 27t54 76h82q-18 -83 -79 -130t-155 -47q-72 0 -129.5 34z
M159 700h78l74 -65l74 65h78l-111 -133h-82z" />
    <glyph glyph-name="Dcaron" unicode="&#x10e;" 
d="M60 700h170q90 0 161 -41.5t111.5 -121t40.5 -187.5t-40.5 -187.5t-111.5 -121t-161 -41.5h-170v700zM224 78q67 0 119.5 31.5t82.5 92.5t30 148t-30 148t-82.5 92.5t-119.5 31.5h-78v-544h78zM68 906h78l74 -65l74 65h78l-111 -133h-82z" />
    <glyph glyph-name="dcaron" unicode="&#x10f;" 
d="M168 20.5q-57 34.5 -89.5 94t-32.5 132.5q0 72 34 132t91.5 94.5t124.5 34.5q61 0 107.5 -23.5t72.5 -58.5v274h82v-700h-76v85q-29 -45 -77 -72t-111 -27q-69 0 -126 34.5zM392.5 83.5q40.5 23.5 65 66t24.5 97.5t-24.5 97.5t-65 66t-87.5 23.5q-49 0 -89.5 -23t-64 -66
t-23.5 -98t23.5 -98t64 -66t89.5 -23q47 0 87.5 23.5zM580 546h8q29 0 44.5 12.5t18.5 42.5q-6 -4 -19 -4q-23 0 -39 16.5t-16 41.5t16.5 42t41.5 17q31 0 49.5 -22t18.5 -67q0 -61 -30.5 -94t-80.5 -33h-12v48z" />
    <glyph glyph-name="Dcroat" unicode="&#x110;" 
d="M391 658.5q71 -41.5 111.5 -121t40.5 -187.5t-40.5 -187.5t-111.5 -121t-161 -41.5h-170v314h-60v72h60v314h170q90 0 161 -41.5zM343.5 109.5q52.5 31.5 82.5 92.5t30 148t-30 148t-82.5 92.5t-119.5 31.5h-78v-236h141v-72h-141v-236h78q67 0 119.5 31.5z" />
    <glyph glyph-name="dcroat" unicode="&#x111;" 
d="M636 562h-78v-562h-76v85q-29 -45 -77 -72t-111 -27q-69 0 -126 34.5t-89.5 94t-32.5 132.5q0 72 34 132t91.5 94.5t124.5 34.5q61 0 107.5 -23.5t72.5 -58.5v136h-152v70h152v68h82v-68h78v-70zM392.5 83.5q40.5 23.5 65 66t24.5 97.5t-24.5 97.5t-65 66t-87.5 23.5
q-49 0 -89.5 -23t-64 -66t-23.5 -98t23.5 -98t64 -66t89.5 -23q47 0 87.5 23.5z" />
    <glyph glyph-name="Emacron" unicode="&#x112;" 
d="M74 700h451v-78h-365v-211h323v-78h-323v-255h368v-78h-454v700zM168 876h264v-66h-264v66z" />
    <glyph glyph-name="emacron" unicode="&#x113;" 
d="M549 234h-409q0 -54 22.5 -94t60.5 -61t84 -21q59 0 99 29t56 76h78q-22 -80 -83.5 -128.5t-149.5 -48.5q-72 0 -129 33.5t-88.5 93t-31.5 134.5t32.5 134.5t89.5 93t126 33.5q73 0 128 -30.5t85 -86.5t30 -131v-26zM201 401.5q-43 -36.5 -56 -101.5h324q-8 64 -52 101
t-112 37q-61 0 -104 -36.5zM174 670h264v-66h-264v66z" />
    <glyph glyph-name="Edotaccent" unicode="&#x116;" 
d="M74 700h451v-78h-365v-211h323v-78h-323v-255h368v-78h-454v700zM250.5 800.5q-20.5 20.5 -20.5 49.5q0 30 20.5 50t49.5 20q30 0 50 -20t20 -50q0 -29 -20 -49.5t-50 -20.5q-29 0 -49.5 20.5z" />
    <glyph glyph-name="edotaccent" unicode="&#x117;" 
d="M549 234h-409q0 -54 22.5 -94t60.5 -61t84 -21q59 0 99 29t56 76h78q-22 -80 -83.5 -128.5t-149.5 -48.5q-72 0 -129 33.5t-88.5 93t-31.5 134.5t32.5 134.5t89.5 93t126 33.5q73 0 128 -30.5t85 -86.5t30 -131v-26zM201 401.5q-43 -36.5 -56 -101.5h324q-8 64 -52 101
t-112 37q-61 0 -104 -36.5zM256.5 594.5q-20.5 20.5 -20.5 49.5q0 30 20.5 50t49.5 20q30 0 50 -20t20 -50q0 -29 -20 -49.5t-50 -20.5q-29 0 -49.5 20.5z" />
    <glyph glyph-name="Eogonek" unicode="&#x118;" 
d="M543 -120v-67q-32 -13 -70 -13q-41 0 -67.5 25.5t-26.5 67.5q0 34 17.5 62.5t44.5 44.5h-367v700h451v-78h-365v-211h323v-78h-323v-255h368v-78q-71 -39 -71 -84q0 -21 12 -33t31 -12q22 0 43 9z" />
    <glyph glyph-name="eogonek" unicode="&#x119;" 
d="M549 234h-409q0 -54 22.5 -94t60.5 -61t84 -21q59 0 99 29t56 76h78q-17 -59 -55.5 -102t-93.5 -62q-32 -18 -51 -38t-19 -45q0 -21 12 -33t31 -12q22 0 43 9v-67q-32 -13 -70 -13q-41 0 -67.5 25.5t-26.5 67.5q0 28 11.5 52.5t31.5 41.5q-67 4 -118.5 38.5t-80.5 92
t-29 129.5q0 75 32.5 134.5t89.5 93t126 33.5q73 0 128 -30.5t85 -86.5t30 -131v-26zM201 401.5q-43 -36.5 -56 -101.5h324q-8 64 -52 101t-112 37q-61 0 -104 -36.5z" />
    <glyph glyph-name="Ecaron" unicode="&#x11a;" 
d="M74 700h451v-78h-365v-211h323v-78h-323v-255h368v-78h-454v700zM148 906h78l74 -65l74 65h78l-111 -133h-82z" />
    <glyph glyph-name="ecaron" unicode="&#x11b;" 
d="M549 234h-409q0 -54 22.5 -94t60.5 -61t84 -21q59 0 99 29t56 76h78q-22 -80 -83.5 -128.5t-149.5 -48.5q-72 0 -129 33.5t-88.5 93t-31.5 134.5t32.5 134.5t89.5 93t126 33.5q73 0 128 -30.5t85 -86.5t30 -131v-26zM201 401.5q-43 -36.5 -56 -101.5h324q-8 64 -52 101
t-112 37q-61 0 -104 -36.5zM154 700h78l74 -65l74 65h78l-111 -133h-82z" />
    <glyph glyph-name="Gbreve" unicode="&#x11e;" 
d="M561 352v-37q0 -103 -32.5 -177.5t-89.5 -113t-131 -38.5q-81 0 -142.5 41t-95.5 123t-34 200q0 117 36 199t98 123.5t139 41.5q102 0 166.5 -61.5t71.5 -167.5h-84q-7 73 -48.5 112t-105.5 39q-82 0 -134 -71t-52 -215q0 -145 51 -215.5t134 -70.5q155 0 172 214h-149
v74h230zM218 816.5q-35 36.5 -35 89.5h58q0 -32 18.5 -52t49.5 -20t49.5 20t18.5 52h58q0 -53 -35 -89.5t-91 -36.5t-91 36.5z" />
    <glyph glyph-name="gbreve" unicode="&#x11f;" 
d="M185 -190q-52 24 -80.5 65t-31.5 91h82q5 -48 43.5 -77t104.5 -29q73 0 115 38t42 110v91q-60 -87 -175 -87q-64 0 -117 32t-84.5 88.5t-31.5 127.5t32.5 127.5t87 88.5t118.5 32q59 0 106.5 -24t69.5 -64v74h76v-484q0 -65 -31 -116t-85 -79.5t-121 -28.5q-68 0 -120 24
zM383 108q38 22 60.5 62t22.5 90q0 51 -22.5 90.5t-60.5 61.5t-83 22t-83 -22t-60.5 -61.5t-22.5 -90.5q0 -50 22.5 -90t60.5 -62t83 -22t83 22zM213 610.5q-35 36.5 -35 89.5h58q0 -32 18.5 -52t49.5 -20t49.5 20t18.5 52h58q0 -53 -35 -89.5t-91 -36.5t-91 36.5z" />
    <glyph glyph-name="uni0122" unicode="&#x122;" 
d="M561 352v-37q0 -103 -32.5 -177.5t-89.5 -113t-131 -38.5q-81 0 -142.5 41t-95.5 123t-34 200q0 117 36 199t98 123.5t139 41.5q102 0 166.5 -61.5t71.5 -167.5h-84q-7 73 -48.5 112t-105.5 39q-82 0 -134 -71t-52 -215q0 -145 51 -215.5t134 -70.5q155 0 172 214h-149
v74h230zM250 -212h11q27 0 41 12t17 37q-6 -3 -17 -3q-22 0 -36.5 15.5t-14.5 38.5t15.5 38.5t37.5 15.5q32 0 49 -22t17 -64q0 -55 -28 -83.5t-78 -28.5h-14v44z" />
    <glyph glyph-name="uni0123" unicode="&#x123;" 
d="M185 -190q-52 24 -80.5 65t-31.5 91h82q5 -48 43.5 -77t104.5 -29q73 0 115 38t42 110v91q-60 -87 -175 -87q-64 0 -117 32t-84.5 88.5t-31.5 127.5t32.5 127.5t87 88.5t118.5 32q59 0 106.5 -24t69.5 -64v74h76v-484q0 -65 -31 -116t-85 -79.5t-121 -28.5q-68 0 -120 24
zM383 108q38 22 60.5 62t22.5 90q0 51 -22.5 90.5t-60.5 61.5t-83 22t-83 -22t-60.5 -61.5t-22.5 -90.5q0 -50 22.5 -90t60.5 -62t83 -22t83 22zM364 708h-11q-27 0 -41 -12t-17 -37q6 3 17 3q22 0 36.5 -15.5t14.5 -38.5t-15.5 -38.5t-37.5 -15.5q-32 0 -49 22t-17 64
q0 55 28 83.5t78 28.5h14v-44z" />
    <glyph glyph-name="Imacron" unicode="&#x12a;" 
d="M82 78h175v544h-175v78h436v-78h-175v-544h175v-78h-436v78zM168 876h264v-66h-264v66z" />
    <glyph glyph-name="imacron" unicode="&#x12b;" 
d="M83 76h176v342h-146v76h228v-418h177v-76h-435v76zM168 670h264v-66h-264v66z" />
    <glyph glyph-name="Iogonek" unicode="&#x12e;" 
d="M533 -120v-67q-32 -13 -70 -13q-41 0 -67.5 25.5t-26.5 67.5q0 34 17.5 62.5t44.5 44.5h-349v78h175v544h-175v78h436v-78h-175v-544h175v-78q-71 -39 -71 -84q0 -21 12 -33t31 -12q22 0 43 9z" />
    <glyph glyph-name="iogonek" unicode="&#x12f;" 
d="M250.5 594.5q-20.5 20.5 -20.5 49.5q0 30 20.5 50t49.5 20q30 0 50 -20t20 -50q0 -29 -20 -49.5t-50 -20.5q-29 0 -49.5 20.5zM533 -120v-67q-32 -13 -70 -13q-41 0 -67.5 25.5t-26.5 67.5q0 34 17.5 62.5t44.5 44.5h-348v76h176v342h-146v76h228v-418h177v-76
q-71 -39 -71 -84q0 -21 12 -33t31 -12q22 0 43 9z" />
    <glyph glyph-name="Idotaccent" unicode="&#x130;" 
d="M82 78h175v544h-175v78h436v-78h-175v-544h175v-78h-436v78zM250.5 800.5q-20.5 20.5 -20.5 49.5q0 30 20.5 50t49.5 20q30 0 50 -20t20 -50q0 -29 -20 -49.5t-50 -20.5q-29 0 -49.5 20.5z" />
    <glyph glyph-name="dotlessi" unicode="&#x131;" 
d="M83 76h176v342h-146v76h228v-418h177v-76h-435v76z" />
    <glyph glyph-name="uni0136" unicode="&#x136;" 
d="M454 0l-297 332v-332h-86v700h86v-328l292 328h110l-308 -346l313 -354h-110zM242 -212h11q27 0 41 12t17 37q-6 -3 -17 -3q-22 0 -36.5 15.5t-14.5 38.5t15.5 38.5t37.5 15.5q32 0 49 -22t17 -64q0 -55 -28 -83.5t-78 -28.5h-14v44z" />
    <glyph glyph-name="uni0137" unicode="&#x137;" 
d="M405 0l-221 249v-249h-82v700h82v-435l210 229h105l-219 -237l229 -257h-104zM237 -212h11q27 0 41 12t17 37q-6 -3 -17 -3q-22 0 -36.5 15.5t-14.5 38.5t15.5 38.5t37.5 15.5q32 0 49 -22t17 -64q0 -55 -28 -83.5t-78 -28.5h-14v44z" />
    <glyph glyph-name="Lacute" unicode="&#x139;" 
d="M66 700h86v-622h368v-78h-454v700zM142 906h124l-118 -133h-78z" />
    <glyph glyph-name="lacute" unicode="&#x13a;" 
d="M238.5 38.5q-47.5 52.5 -47.5 141.5v444h-131v76h213v-524q0 -56 25.5 -85t71.5 -29t71.5 29t25.5 85v29h82v-25q0 -85 -48 -139.5t-131 -54.5q-84 0 -131.5 52.5zM265 906h124l-118 -133h-78z" />
    <glyph glyph-name="uni013B" unicode="&#x13b;" 
d="M66 700h86v-622h368v-78h-454v700zM236 -212h11q27 0 41 12t17 37q-6 -3 -17 -3q-22 0 -36.5 15.5t-14.5 38.5t15.5 38.5t37.5 15.5q32 0 49 -22t17 -64q0 -55 -28 -83.5t-78 -28.5h-14v44z" />
    <glyph glyph-name="uni013C" unicode="&#x13c;" 
d="M238.5 38.5q-47.5 52.5 -47.5 141.5v444h-131v76h213v-524q0 -56 25.5 -85t71.5 -29t71.5 29t25.5 85v29h82v-25q0 -85 -48 -139.5t-131 -54.5q-84 0 -131.5 52.5zM312 -212h11q27 0 41 12t17 37q-6 -3 -17 -3q-22 0 -36.5 15.5t-14.5 38.5t15.5 38.5t37.5 15.5
q32 0 49 -22t17 -64q0 -55 -28 -83.5t-78 -28.5h-14v44z" />
    <glyph glyph-name="Lcaron" unicode="&#x13d;" 
d="M66 700h86v-622h368v-78h-454v700zM409 546h8q29 0 44.5 12.5t18.5 42.5q-6 -4 -19 -4q-23 0 -39 16.5t-16 41.5t16.5 42t41.5 17q31 0 49.5 -22t18.5 -67q0 -61 -30.5 -94t-80.5 -33h-12v48z" />
    <glyph glyph-name="lcaron" unicode="&#x13e;" 
d="M238.5 38.5q-47.5 52.5 -47.5 141.5v444h-131v76h213v-524q0 -56 25.5 -85t71.5 -29t71.5 29t25.5 85v29h82v-25q0 -85 -48 -139.5t-131 -54.5q-84 0 -131.5 52.5zM431 546h8q29 0 44.5 12.5t18.5 42.5q-6 -4 -19 -4q-23 0 -39 16.5t-16 41.5t16.5 42t41.5 17
q31 0 49.5 -22t18.5 -67q0 -61 -30.5 -94t-80.5 -33h-12v48z" />
    <glyph glyph-name="Lslash" unicode="&#x141;" 
d="M520 78v-78h-454v227l-66 -45v96l66 45v377h86v-318l198 136v-96l-198 -136v-208h368z" />
    <glyph glyph-name="lslash" unicode="&#x142;" 
d="M549 205v-25q0 -85 -48 -139.5t-131 -54.5q-84 0 -131.5 52.5t-47.5 141.5v71l-97 -69v98l97 69v275h-131v76h213v-292l141 100v-98l-141 -100v-134q0 -56 25.5 -85t71.5 -29t71.5 29t25.5 85v29h82z" />
    <glyph glyph-name="Nacute" unicode="&#x143;" 
d="M65 700h84l307 -552q-5 58 -5 94v458h84v-700h-84l-308 552q1 -10 3.5 -38.5t2.5 -55.5v-458h-84v700zM333 906h124l-118 -133h-78z" />
    <glyph glyph-name="nacute" unicode="&#x144;" 
d="M104 494h77v-73q19 40 58.5 63.5t99.5 23.5q82 0 128.5 -54.5t46.5 -140.5v-313h-82v300q0 64 -34 100t-89 36t-89 -36t-34 -100v-300h-82v494zM350 700h124l-118 -133h-78z" />
    <glyph glyph-name="uni0145" unicode="&#x145;" 
d="M65 700h84l307 -552q-5 58 -5 94v458h84v-700h-84l-308 552q1 -10 3.5 -38.5t2.5 -55.5v-458h-84v700zM242 -212h11q27 0 41 12t17 37q-6 -3 -17 -3q-22 0 -36.5 15.5t-14.5 38.5t15.5 38.5t37.5 15.5q32 0 49 -22t17 -64q0 -55 -28 -83.5t-78 -28.5h-14v44z" />
    <glyph glyph-name="uni0146" unicode="&#x146;" 
d="M104 494h77v-73q19 40 58.5 63.5t99.5 23.5q82 0 128.5 -54.5t46.5 -140.5v-313h-82v300q0 64 -34 100t-89 36t-89 -36t-34 -100v-300h-82v494zM251 -212h11q27 0 41 12t17 37q-6 -3 -17 -3q-22 0 -36.5 15.5t-14.5 38.5t15.5 38.5t37.5 15.5q32 0 49 -22t17 -64
q0 -55 -28 -83.5t-78 -28.5h-14v44z" />
    <glyph glyph-name="Ncaron" unicode="&#x147;" 
d="M65 700h84l307 -552q-5 58 -5 94v458h84v-700h-84l-308 552q1 -10 3.5 -38.5t2.5 -55.5v-458h-84v700zM148 906h78l74 -65l74 65h78l-111 -133h-82z" />
    <glyph glyph-name="ncaron" unicode="&#x148;" 
d="M104 494h77v-73q19 40 58.5 63.5t99.5 23.5q82 0 128.5 -54.5t46.5 -140.5v-313h-82v300q0 64 -34 100t-89 36t-89 -36t-34 -100v-300h-82v494zM165 700h78l74 -65l74 65h78l-111 -133h-82z" />
    <glyph glyph-name="Omacron" unicode="&#x14c;" 
d="M161 27.5q-61 41.5 -96 123.5t-35 199t35 199t96 123.5t139 41.5t139 -41.5t96 -123.5t35 -199t-35 -199t-96 -123.5t-139 -41.5t-139 41.5zM435 137.5q48 73.5 48 212.5t-48 212.5t-135 73.5t-135 -73.5t-48 -212.5t48 -212.5t135 -73.5t135 73.5zM168 876h264v-66h-264
v66z" />
    <glyph glyph-name="omacron" unicode="&#x14d;" 
d="M166.5 20.5q-59.5 34.5 -93.5 94t-34 132.5t34 132.5t93.5 94t133.5 34.5t133.5 -34.5t93.5 -94t34 -132.5t-34 -132.5t-93.5 -94t-133.5 -34.5t-133.5 34.5zM390 83q41 23 65 65.5t24 98.5t-24 98.5t-65 65.5t-90 23t-90 -23t-65 -65.5t-24 -98.5t24 -98.5t65 -65.5
t90 -23t90 23zM168 670h264v-66h-264v66z" />
    <glyph glyph-name="Ohungarumlaut" unicode="&#x150;" 
d="M161 27.5q-61 41.5 -96 123.5t-35 199t35 199t96 123.5t139 41.5t139 -41.5t96 -123.5t35 -199t-35 -199t-96 -123.5t-139 -41.5t-139 41.5zM435 137.5q48 73.5 48 212.5t-48 212.5t-135 73.5t-135 -73.5t-48 -212.5t48 -212.5t135 -73.5t135 73.5zM227 906h116l-94 -133
h-78zM407 906h116l-94 -133h-78z" />
    <glyph glyph-name="ohungarumlaut" unicode="&#x151;" 
d="M166.5 20.5q-59.5 34.5 -93.5 94t-34 132.5t34 132.5t93.5 94t133.5 34.5t133.5 -34.5t93.5 -94t34 -132.5t-34 -132.5t-93.5 -94t-133.5 -34.5t-133.5 34.5zM390 83q41 23 65 65.5t24 98.5t-24 98.5t-65 65.5t-90 23t-90 -23t-65 -65.5t-24 -98.5t24 -98.5t65 -65.5
t90 -23t90 23zM227 700h116l-94 -133h-78zM407 700h116l-94 -133h-78z" />
    <glyph glyph-name="OE" unicode="&#x152;" 
d="M107.5 27.5q-44.5 41.5 -69 123t-24.5 199.5t25.5 199.5t71 123t105.5 41.5q44 0 75.5 -21t49.5 -59v66h244v-78h-158v-211h143v-78h-143v-255h161v-78h-247v66q-19 -37 -54.5 -58.5t-76.5 -21.5q-58 0 -102.5 41.5zM315 135q32 71 32 215t-32 215t-91 71t-91 -71
t-32 -215t32 -215t91 -71t91 71z" />
    <glyph glyph-name="oe" unicode="&#x153;" 
d="M588 234h-249q0 -81 24.5 -128.5t62.5 -47.5q65 0 75 105h78q-10 -85 -46.5 -131t-106.5 -46q-44 0 -80 24.5t-53 67.5q-13 -42 -44 -67t-78 -25q-81 0 -122 72t-41 189q0 116 42.5 188.5t123.5 72.5q47 0 79 -23.5t48 -64.5q14 37 48 62.5t76 25.5q81 0 122 -65.5
t41 -182.5v-26zM509 300q-9 138 -85 138q-31 0 -53 -36.5t-29 -101.5h167zM235.5 105q22.5 45 22.5 142t-22.5 142t-61.5 45t-61.5 -45t-22.5 -142t22.5 -142t61.5 -45t61.5 45z" />
    <glyph glyph-name="Racute" unicode="&#x154;" 
d="M468 0l-144 280h-173v-280h-86v700h243q68 0 120 -27t81 -74.5t29 -108.5q0 -67 -34.5 -117t-95.5 -74l152 -299h-92zM304 356q70 0 109 35.5t39 98.5t-39 98.5t-109 35.5h-153v-268h153zM333 906h124l-118 -133h-78z" />
    <glyph glyph-name="racute" unicode="&#x155;" 
d="M328 392q-26 -26 -26 -79v-237h164v-76h-375v76h129v342h-129v76h205v-83q9 42 37.5 62.5t70.5 20.5h128v-76h-125q-53 0 -79 -26zM403 700h124l-118 -133h-78z" />
    <glyph glyph-name="uni0156" unicode="&#x156;" 
d="M468 0l-144 280h-173v-280h-86v700h243q68 0 120 -27t81 -74.5t29 -108.5q0 -67 -34.5 -117t-95.5 -74l152 -299h-92zM304 356q70 0 109 35.5t39 98.5t-39 98.5t-109 35.5h-153v-268h153zM242 -212h11q27 0 41 12t17 37q-6 -3 -17 -3q-22 0 -36.5 15.5t-14.5 38.5
t15.5 38.5t37.5 15.5q32 0 49 -22t17 -64q0 -55 -28 -83.5t-78 -28.5h-14v44z" />
    <glyph glyph-name="uni0157" unicode="&#x157;" 
d="M328 392q-26 -26 -26 -79v-237h164v-76h-375v76h129v342h-129v76h205v-83q9 42 37.5 62.5t70.5 20.5h128v-76h-125q-53 0 -79 -26zM203 -212h11q27 0 41 12t17 37q-6 -3 -17 -3q-22 0 -36.5 15.5t-14.5 38.5t15.5 38.5t37.5 15.5q32 0 49 -22t17 -64q0 -55 -28 -83.5
t-78 -28.5h-14v44z" />
    <glyph glyph-name="Rcaron" unicode="&#x158;" 
d="M468 0l-144 280h-173v-280h-86v700h243q68 0 120 -27t81 -74.5t29 -108.5q0 -67 -34.5 -117t-95.5 -74l152 -299h-92zM304 356q70 0 109 35.5t39 98.5t-39 98.5t-109 35.5h-153v-268h153zM148 906h78l74 -65l74 65h78l-111 -133h-82z" />
    <glyph glyph-name="rcaron" unicode="&#x159;" 
d="M328 392q-26 -26 -26 -79v-237h164v-76h-375v76h129v342h-129v76h205v-83q9 42 37.5 62.5t70.5 20.5h128v-76h-125q-53 0 -79 -26zM218 700h78l74 -65l74 65h78l-111 -133h-82z" />
    <glyph glyph-name="Sacute" unicode="&#x15a;" 
d="M180.5 14q-53.5 28 -83 77.5t-29.5 113.5h86q0 -64 44 -102.5t109 -38.5t103 34.5t38 91.5q0 48 -28.5 74.5t-93.5 48.5l-84 29q-74 26 -117 72.5t-43 113.5q0 54 29 96.5t78.5 66t110.5 23.5q68 0 117 -24.5t74.5 -68.5t25.5 -100h-85q0 51 -37 84t-95 33
q-38 0 -68.5 -14t-47 -37t-16.5 -49q0 -40 28.5 -70.5t89.5 -51.5l95 -33q76 -26 114.5 -71t38.5 -117q0 -58 -27.5 -105.5t-79.5 -75.5t-124 -28q-69 0 -122.5 28zM333 906h124l-118 -133h-78z" />
    <glyph glyph-name="sacute" unicode="&#x15b;" 
d="M198.5 9q-46.5 23 -72 63.5t-25.5 90.5h82q0 -45 33.5 -75t89.5 -30q53 0 84.5 19.5t31.5 55.5q0 32 -23 51.5t-71 29.5l-83 17q-64 13 -97 48.5t-33 87.5q0 40 24.5 72.5t68 50.5t97.5 18q58 0 100 -20t64 -53.5t22 -75.5h-78q0 20 -15.5 38t-41 29.5t-53.5 11.5
q-48 0 -77.5 -20t-29.5 -48t21 -46t69 -28l88 -19q60 -13 94.5 -47.5t34.5 -89.5q0 -71 -56 -112.5t-141 -41.5q-61 0 -107.5 23zM336 700h124l-118 -133h-78z" />
    <glyph glyph-name="Scedilla" unicode="&#x15e;" 
d="M509 93q-25 -46 -73 -74.5t-114 -31.5l-13 -42q18 2 28 2q35 0 58 -23t23 -61q0 -47 -30.5 -69t-76.5 -22q-42 0 -69 10v52q28 -10 57 -10q56 0 56 40q0 18 -13.5 28.5t-35.5 10.5h-64v20l22 65q-89 11 -142.5 70t-53.5 147h86q0 -64 44 -102.5t109 -38.5t103 34.5
t38 91.5q0 48 -28.5 74.5t-93.5 48.5l-84 29q-74 26 -117 72.5t-43 113.5q0 54 29 96.5t78.5 66t110.5 23.5q68 0 117 -24.5t74.5 -68.5t25.5 -100h-85q0 51 -37 84t-95 33q-38 0 -68.5 -14t-47 -37t-16.5 -49q0 -40 28.5 -70.5t89.5 -51.5l95 -33q76 -26 114.5 -71
t38.5 -117q0 -56 -25 -102z" />
    <glyph glyph-name="scedilla" unicode="&#x15f;" 
d="M453 32.5q-50 -40.5 -128 -45.5l-13 -41q18 2 28 2q35 0 58 -23t23 -61q0 -47 -30.5 -69t-76.5 -22q-42 0 -69 10v52q28 -10 57 -10q56 0 56 40q0 18 -13.5 28.5t-35.5 10.5h-64v20l22 65q-76 10 -121 58t-45 116h82q0 -45 33.5 -75t89.5 -30q53 0 84.5 19.5t31.5 55.5
q0 32 -23 51.5t-71 29.5l-83 17q-64 13 -97 48.5t-33 87.5q0 40 24.5 72.5t68 50.5t97.5 18q58 0 100 -20t64 -53.5t22 -75.5h-78q0 20 -15.5 38t-41 29.5t-53.5 11.5q-48 0 -77.5 -20t-29.5 -48t21 -46t69 -28l88 -19q60 -13 94.5 -47.5t34.5 -89.5q0 -67 -50 -107.5z" />
    <glyph glyph-name="Scaron" unicode="&#x160;" 
d="M180.5 14q-53.5 28 -83 77.5t-29.5 113.5h86q0 -64 44 -102.5t109 -38.5t103 34.5t38 91.5q0 48 -28.5 74.5t-93.5 48.5l-84 29q-74 26 -117 72.5t-43 113.5q0 54 29 96.5t78.5 66t110.5 23.5q68 0 117 -24.5t74.5 -68.5t25.5 -100h-85q0 51 -37 84t-95 33
q-38 0 -68.5 -14t-47 -37t-16.5 -49q0 -40 28.5 -70.5t89.5 -51.5l95 -33q76 -26 114.5 -71t38.5 -117q0 -58 -27.5 -105.5t-79.5 -75.5t-124 -28q-69 0 -122.5 28zM148 906h78l74 -65l74 65h78l-111 -133h-82z" />
    <glyph glyph-name="scaron" unicode="&#x161;" 
d="M198.5 9q-46.5 23 -72 63.5t-25.5 90.5h82q0 -45 33.5 -75t89.5 -30q53 0 84.5 19.5t31.5 55.5q0 32 -23 51.5t-71 29.5l-83 17q-64 13 -97 48.5t-33 87.5q0 40 24.5 72.5t68 50.5t97.5 18q58 0 100 -20t64 -53.5t22 -75.5h-78q0 20 -15.5 38t-41 29.5t-53.5 11.5
q-48 0 -77.5 -20t-29.5 -48t21 -46t69 -28l88 -19q60 -13 94.5 -47.5t34.5 -89.5q0 -71 -56 -112.5t-141 -41.5q-61 0 -107.5 23zM151 700h78l74 -65l74 65h78l-111 -133h-82z" />
    <glyph glyph-name="uni0162" unicode="&#x162;" 
d="M326 0l-17 -55q18 2 28 2q35 0 58 -23t23 -61q0 -47 -30.5 -69t-76.5 -22q-42 0 -69 10v52q28 -10 57 -10q56 0 56 40q0 18 -13.5 28.5t-35.5 10.5h-64v20l26 77h-11v622h-213v78h512v-78h-213v-622h-17z" />
    <glyph glyph-name="uni0163" unicode="&#x163;" 
d="M290 426v-264q0 -44 20.5 -65t63.5 -21h127v-76h-118l-17 -55q18 2 28 2q35 0 58 -23t23 -61q0 -47 -30.5 -69t-76.5 -22q-42 0 -69 10v52q28 -10 57 -10q56 0 56 40q0 18 -13.5 28.5t-35.5 10.5h-64v20l27 79q-57 9 -87.5 50t-30.5 106v268h-143v68h143v140h82v-140h211
v-68h-211z" />
    <glyph glyph-name="Tcaron" unicode="&#x164;" 
d="M257 622h-213v78h512v-78h-213v-622h-86v622zM148 906h78l74 -65l74 65h78l-111 -133h-82z" />
    <glyph glyph-name="tcaron" unicode="&#x165;" 
d="M290 426v-264q0 -44 20.5 -65t63.5 -21h127v-76h-144q-71 0 -110 42t-39 116v268h-143v68h143v140h82v-140h211v-68h-211zM344 596h8q29 0 44.5 12.5t18.5 42.5q-6 -4 -19 -4q-23 0 -39 16.5t-16 41.5t16.5 42t41.5 17q31 0 49.5 -22t18.5 -67q0 -61 -30.5 -94t-80.5 -33
h-12v48z" />
    <glyph glyph-name="Umacron" unicode="&#x16a;" 
d="M176.5 17.5q-55.5 31.5 -88 90.5t-32.5 139v453h86v-464q0 -77 44 -124.5t114 -47.5t114 48t44 124v464h86v-453q0 -80 -32.5 -139t-88 -90.5t-123.5 -31.5t-123.5 31.5zM168 876h264v-66h-264v66z" />
    <glyph glyph-name="umacron" unicode="&#x16b;" 
d="M132.5 40.5q-46.5 54.5 -46.5 140.5v313h82v-300q0 -64 34 -100t89 -36t89 36t34 100v300h82v-494h-77v73q-19 -40 -58.5 -63.5t-99.5 -23.5q-82 0 -128.5 54.5zM159 670h264v-66h-264v66z" />
    <glyph glyph-name="Uring" unicode="&#x16e;" 
d="M176.5 17.5q-55.5 31.5 -88 90.5t-32.5 139v453h86v-464q0 -77 44 -124.5t114 -47.5t114 48t44 124v464h86v-453q0 -80 -32.5 -139t-88 -90.5t-123.5 -31.5t-123.5 31.5zM215 801.5q-35 35.5 -35 84.5q0 50 35 85t85 35q49 0 84.5 -35t35.5 -85q0 -49 -35.5 -84.5
t-84.5 -35.5q-50 0 -85 35.5zM349.5 836.5q20.5 20.5 20.5 49.5t-20.5 49.5t-49.5 20.5t-49.5 -20.5t-20.5 -49.5t20.5 -49.5t49.5 -20.5t49.5 20.5z" />
    <glyph glyph-name="uring" unicode="&#x16f;" 
d="M132.5 40.5q-46.5 54.5 -46.5 140.5v313h82v-300q0 -64 34 -100t89 -36t89 36t34 100v300h82v-494h-77v73q-19 -40 -58.5 -63.5t-99.5 -23.5q-82 0 -128.5 54.5zM206 595.5q-35 35.5 -35 84.5q0 50 35 85t85 35q49 0 84.5 -35t35.5 -85q0 -49 -35.5 -84.5t-84.5 -35.5
q-50 0 -85 35.5zM340.5 630.5q20.5 20.5 20.5 49.5t-20.5 49.5t-49.5 20.5t-49.5 -20.5t-20.5 -49.5t20.5 -49.5t49.5 -20.5t49.5 20.5z" />
    <glyph glyph-name="Uhungarumlaut" unicode="&#x170;" 
d="M176.5 17.5q-55.5 31.5 -88 90.5t-32.5 139v453h86v-464q0 -77 44 -124.5t114 -47.5t114 48t44 124v464h86v-453q0 -80 -32.5 -139t-88 -90.5t-123.5 -31.5t-123.5 31.5zM227 906h116l-94 -133h-78zM407 906h116l-94 -133h-78z" />
    <glyph glyph-name="uhungarumlaut" unicode="&#x171;" 
d="M132.5 40.5q-46.5 54.5 -46.5 140.5v313h82v-300q0 -64 34 -100t89 -36t89 36t34 100v300h82v-494h-77v73q-19 -40 -58.5 -63.5t-99.5 -23.5q-82 0 -128.5 54.5zM218 700h116l-94 -133h-78zM398 700h116l-94 -133h-78z" />
    <glyph glyph-name="Uogonek" unicode="&#x172;" 
d="M544 700v-453q0 -93 -44.5 -158t-116.5 -90q-32 -18 -51 -38t-19 -45q0 -21 12 -33t31 -12q22 0 43 9v-67q-32 -13 -70 -13q-41 0 -67.5 25.5t-26.5 67.5q0 28 11.5 52.5t31.5 41.5q-63 5 -113.5 37.5t-79.5 90t-29 132.5v453h86v-464q0 -77 44 -124.5t114 -47.5t114 48
t44 124v464h86z" />
    <glyph glyph-name="uogonek" unicode="&#x173;" 
d="M511 -120v-67q-33 -13 -70 -13q-41 0 -67.5 25.5t-26.5 67.5q0 38 20.5 68.5t51.5 43.5v68q-19 -40 -58.5 -63.5t-99.5 -23.5q-82 0 -128.5 54.5t-46.5 140.5v313h82v-300q0 -64 34 -100t89 -36t89 36t34 100v300h82v-494q-71 -39 -71 -84q0 -21 12 -33t31 -12q22 0 43 9
z" />
    <glyph glyph-name="Ydieresis" unicode="&#x178;" 
d="M257 281l-228 419h98l147 -283q14 -26 26 -56q12 30 26 56l147 283h98l-228 -419v-281h-86v281zM167 802q-18 18 -18 43q0 26 18 43.5t43 17.5q26 0 43.5 -17.5t17.5 -43.5t-17.5 -43.5t-43.5 -17.5q-25 0 -43 18zM346.5 802q-17.5 18 -17.5 43q0 26 17.5 43.5t43.5 17.5
t43.5 -17.5t17.5 -43.5q0 -25 -18 -43t-43 -18q-26 0 -43.5 18z" />
    <glyph glyph-name="Zacute" unicode="&#x179;" 
d="M44 78l388 544h-370v78h468v-78l-389 -544h407v-78h-504v78zM333 906h124l-118 -133h-78z" />
    <glyph glyph-name="zacute" unicode="&#x17a;" 
d="M96 68l311 358h-303v68h399v-68l-310 -358h323v-68h-420v68zM333 700h124l-118 -133h-78z" />
    <glyph glyph-name="Zdotaccent" unicode="&#x17b;" 
d="M44 78l388 544h-370v78h468v-78l-389 -544h407v-78h-504v78zM250.5 800.5q-20.5 20.5 -20.5 49.5q0 30 20.5 50t49.5 20q30 0 50 -20t20 -50q0 -29 -20 -49.5t-50 -20.5q-29 0 -49.5 20.5z" />
    <glyph glyph-name="zdotaccent" unicode="&#x17c;" 
d="M96 68l311 358h-303v68h399v-68l-310 -358h323v-68h-420v68zM250.5 594.5q-20.5 20.5 -20.5 49.5q0 30 20.5 50t49.5 20q30 0 50 -20t20 -50q0 -29 -20 -49.5t-50 -20.5q-29 0 -49.5 20.5z" />
    <glyph glyph-name="Zcaron" unicode="&#x17d;" 
d="M44 78l388 544h-370v78h468v-78l-389 -544h407v-78h-504v78zM148 906h78l74 -65l74 65h78l-111 -133h-82z" />
    <glyph glyph-name="zcaron" unicode="&#x17e;" 
d="M96 68l311 358h-303v68h399v-68l-310 -358h323v-68h-420v68zM148 700h78l74 -65l74 65h78l-111 -133h-82z" />
    <glyph glyph-name="florin" unicode="&#x192;" 
d="M386 532l-17 -109h152v-72h-164l-50 -315q-12 -75 -50.5 -109.5t-115.5 -34.5h-91v78h81q48 0 68 20t28 70l47 291h-137v72h148l20 123q25 154 159 154h95v-78h-89q-70 0 -84 -90z" />
    <glyph glyph-name="uni0218" unicode="&#x218;" 
d="M180.5 14q-53.5 28 -83 77.5t-29.5 113.5h86q0 -64 44 -102.5t109 -38.5t103 34.5t38 91.5q0 48 -28.5 74.5t-93.5 48.5l-84 29q-74 26 -117 72.5t-43 113.5q0 54 29 96.5t78.5 66t110.5 23.5q68 0 117 -24.5t74.5 -68.5t25.5 -100h-85q0 51 -37 84t-95 33
q-38 0 -68.5 -14t-47 -37t-16.5 -49q0 -40 28.5 -70.5t89.5 -51.5l95 -33q76 -26 114.5 -71t38.5 -117q0 -58 -27.5 -105.5t-79.5 -75.5t-124 -28q-69 0 -122.5 28zM242 -212h11q27 0 41 12t17 37q-6 -3 -17 -3q-22 0 -36.5 15.5t-14.5 38.5t15.5 38.5t37.5 15.5
q32 0 49 -22t17 -64q0 -55 -28 -83.5t-78 -28.5h-14v44z" />
    <glyph glyph-name="uni0219" unicode="&#x219;" 
d="M198.5 9q-46.5 23 -72 63.5t-25.5 90.5h82q0 -45 33.5 -75t89.5 -30q53 0 84.5 19.5t31.5 55.5q0 32 -23 51.5t-71 29.5l-83 17q-64 13 -97 48.5t-33 87.5q0 40 24.5 72.5t68 50.5t97.5 18q58 0 100 -20t64 -53.5t22 -75.5h-78q0 20 -15.5 38t-41 29.5t-53.5 11.5
q-48 0 -77.5 -20t-29.5 -48t21 -46t69 -28l88 -19q60 -13 94.5 -47.5t34.5 -89.5q0 -71 -56 -112.5t-141 -41.5q-61 0 -107.5 23zM245 -211h11q27 0 41 12t17 37q-6 -3 -17 -3q-22 0 -36.5 15.5t-14.5 38.5t15.5 38.5t37.5 15.5q32 0 49 -22t17 -64q0 -55 -28 -83.5
t-78 -28.5h-14v44z" />
    <glyph glyph-name="uni021A" unicode="&#x21a;" 
d="M257 622h-213v78h512v-78h-213v-622h-86v622zM242 -212h11q27 0 41 12t17 37q-6 -3 -17 -3q-22 0 -36.5 15.5t-14.5 38.5t15.5 38.5t37.5 15.5q32 0 49 -22t17 -64q0 -55 -28 -83.5t-78 -28.5h-14v44z" />
    <glyph glyph-name="uni021B" unicode="&#x21b;" 
d="M290 426v-264q0 -44 20.5 -65t63.5 -21h127v-76h-144q-71 0 -110 42t-39 116v268h-143v68h143v140h82v-140h211v-68h-211zM299 -212h11q27 0 41 12t17 37q-6 -3 -17 -3q-22 0 -36.5 15.5t-14.5 38.5t15.5 38.5t37.5 15.5q32 0 49 -22t17 -64q0 -55 -28 -83.5t-78 -28.5
h-14v44z" />
    <glyph glyph-name="circumflex" unicode="&#x2c6;" 
d="M259 700h82l111 -133h-78l-74 65l-74 -65h-78z" />
    <glyph glyph-name="caron" unicode="&#x2c7;" 
d="M148 700h78l74 -65l74 65h78l-111 -133h-82z" />
    <glyph glyph-name="uni02C9" unicode="&#x2c9;" 
d="M168 670h264v-66h-264v66z" />
    <glyph glyph-name="breve" unicode="&#x2d8;" 
d="M209 610.5q-35 36.5 -35 89.5h58q0 -32 18.5 -52t49.5 -20t49.5 20t18.5 52h58q0 -53 -35 -89.5t-91 -36.5t-91 36.5z" />
    <glyph glyph-name="dotaccent" unicode="&#x2d9;" 
d="M250.5 594.5q-20.5 20.5 -20.5 49.5q0 30 20.5 50t49.5 20q30 0 50 -20t20 -50q0 -29 -20 -49.5t-50 -20.5q-29 0 -49.5 20.5z" />
    <glyph glyph-name="ring" unicode="&#x2da;" 
d="M215 595.5q-35 35.5 -35 84.5q0 50 35 85t85 35q49 0 84.5 -35t35.5 -85q0 -49 -35.5 -84.5t-84.5 -35.5q-50 0 -85 35.5zM349.5 630.5q20.5 20.5 20.5 49.5t-20.5 49.5t-49.5 20.5t-49.5 -20.5t-20.5 -49.5t20.5 -49.5t49.5 -20.5t49.5 20.5z" />
    <glyph glyph-name="ogonek" unicode="&#x2db;" 
d="M244.5 -174.5q-26.5 25.5 -26.5 67.5q0 39 22.5 70.5t55.5 44.5l71 -8q-71 -39 -71 -84q0 -21 12 -33t31 -12q22 0 43 9v-67q-33 -13 -70 -13q-41 0 -67.5 25.5z" />
    <glyph glyph-name="tilde" unicode="&#x2dc;" 
d="M333.5 580q-20.5 9 -48.5 26q-21 12 -32 17.5t-23 5.5q-21 0 -34.5 -14t-13.5 -36h-72q0 52 29 86.5t79 34.5q28 0 48.5 -9t48.5 -26q21 -12 32 -17.5t23 -5.5q21 0 34.5 14t13.5 36h72q0 -52 -29 -86.5t-79 -34.5q-28 0 -48.5 9z" />
    <glyph glyph-name="hungarumlaut" unicode="&#x2dd;" 
d="M180 700h116l-94 -133h-78zM360 700h116l-94 -133h-78z" />
    <glyph glyph-name="gravecomb" unicode="&#x300;" horiz-adv-x="0" 
d="M-398 700h124l72 -133h-78z" />
    <glyph glyph-name="acutecomb" unicode="&#x301;" horiz-adv-x="0" 
d="M-326 700h124l-118 -133h-78z" />
    <glyph glyph-name="uni0302" unicode="&#x302;" horiz-adv-x="0" 
d="M-341 700h82l111 -133h-78l-74 65l-74 -65h-78z" />
    <glyph glyph-name="tildecomb" unicode="&#x303;" horiz-adv-x="0" 
d="M-266.5 580q-20.5 9 -48.5 26q-21 12 -32 17.5t-23 5.5q-21 0 -34.5 -14t-13.5 -36h-72q0 52 29 86.5t79 34.5q28 0 48.5 -9t48.5 -26q21 -12 32 -17.5t23 -5.5q21 0 34.5 14t13.5 36h72q0 -52 -29 -86.5t-79 -34.5q-28 0 -48.5 9z" />
    <glyph glyph-name="uni0304" unicode="&#x304;" horiz-adv-x="0" 
d="M-432 670h264v-66h-264v66z" />
    <glyph glyph-name="uni0306" unicode="&#x306;" horiz-adv-x="0" 
d="M-391 610.5q-35 36.5 -35 89.5h58q0 -32 18.5 -52t49.5 -20t49.5 20t18.5 52h58q0 -53 -35 -89.5t-91 -36.5t-91 36.5z" />
    <glyph glyph-name="uni0307" unicode="&#x307;" horiz-adv-x="0" 
d="M-349.5 594.5q-20.5 20.5 -20.5 49.5q0 30 20.5 50t49.5 20q30 0 50 -20t20 -50q0 -29 -20 -49.5t-50 -20.5q-29 0 -49.5 20.5z" />
    <glyph glyph-name="uni0308" unicode="&#x308;" horiz-adv-x="0" 
d="M-433 596q-18 18 -18 43q0 26 18 43.5t43 17.5q26 0 43.5 -17.5t17.5 -43.5t-17.5 -43.5t-43.5 -17.5q-25 0 -43 18zM-253.5 596q-17.5 18 -17.5 43q0 26 17.5 43.5t43.5 17.5t43.5 -17.5t17.5 -43.5q0 -25 -18 -43t-43 -18q-26 0 -43.5 18z" />
    <glyph glyph-name="uni030A" unicode="&#x30a;" horiz-adv-x="0" 
d="M-385 595.5q-35 35.5 -35 84.5q0 50 35 85t85 35q49 0 84.5 -35t35.5 -85q0 -49 -35.5 -84.5t-84.5 -35.5q-50 0 -85 35.5zM-250.5 630.5q20.5 20.5 20.5 49.5t-20.5 49.5t-49.5 20.5t-49.5 -20.5t-20.5 -49.5t20.5 -49.5t49.5 -20.5t49.5 20.5z" />
    <glyph glyph-name="uni030B" unicode="&#x30b;" horiz-adv-x="0" 
d="M-420 700h116l-94 -133h-78zM-240 700h116l-94 -133h-78z" />
    <glyph glyph-name="uni030C" unicode="&#x30c;" horiz-adv-x="0" 
d="M-452 700h78l74 -65l74 65h78l-111 -133h-82z" />
    <glyph glyph-name="uni0312" unicode="&#x312;" horiz-adv-x="0" 
d="M-240 708h-11q-27 0 -41 -12t-17 -37q6 3 17 3q22 0 36.5 -15.5t14.5 -38.5t-15.5 -38.5t-37.5 -15.5q-32 0 -49 22t-17 64q0 55 28 83.5t78 28.5h14v-44z" />
    <glyph glyph-name="uni0326" unicode="&#x326;" horiz-adv-x="0" 
d="M-364 -212h11q27 0 41 12t17 37q-6 -3 -17 -3q-22 0 -36.5 15.5t-14.5 38.5t15.5 38.5t37.5 15.5q32 0 49 -22t17 -64q0 -55 -28 -83.5t-78 -28.5h-14v44z" />
    <glyph glyph-name="uni0327" unicode="&#x327;" horiz-adv-x="0" 
d="M-235 -76q23 -23 23 -61q0 -47 -30.5 -69t-76.5 -22q-42 0 -69 10v52q28 -10 57 -10q56 0 56 40q0 18 -13.5 28.5t-35.5 10.5h-64v20l35 102h57l-25 -80q18 2 28 2q35 0 58 -23z" />
    <glyph glyph-name="uni0328" unicode="&#x328;" horiz-adv-x="0" 
d="M-355.5 -174.5q-26.5 25.5 -26.5 67.5q0 39 22.5 70.5t55.5 44.5l71 -8q-71 -39 -71 -84q0 -21 12 -33t31 -12q22 0 43 9v-67q-33 -13 -70 -13q-41 0 -67.5 25.5z" />
    <glyph glyph-name="pi" unicode="&#x3c0;" 
d="M470 426v-289q0 -31 14.5 -46t44.5 -15h36v-76h-54q-59 0 -91 34.5t-32 95.5v296h-176v-426h-82v426h-95v68h530v-68h-95z" />
    <glyph glyph-name="endash" unicode="&#x2013;" 
d="M105 370h390v-70h-390v70z" />
    <glyph glyph-name="emdash" unicode="&#x2014;" 
d="M10 370h580v-70h-580v70z" />
    <glyph glyph-name="quoteleft" unicode="&#x2018;" 
d="M219 480.5q-22 30.5 -22 81.5q0 75 38 113.5t103 38.5h52v-60h-48q-74 0 -74 -58q40 0 62 -20t22 -53q0 -31 -21 -52t-52 -21q-38 0 -60 30.5z" />
    <glyph glyph-name="quoteright" unicode="&#x2019;" 
d="M210 510h48q74 0 74 58q-40 0 -62 20t-22 53q0 31 21 52t52 21q38 0 60 -30.5t22 -81.5q0 -75 -38 -113.5t-103 -38.5h-52v60z" />
    <glyph glyph-name="quotesinglbase" unicode="&#x201a;" 
d="M210 -62h48q74 0 74 58q-40 0 -62 20t-22 53q0 31 21 52t52 21q38 0 60 -30.5t22 -81.5q0 -75 -38 -113.5t-103 -38.5h-52v60z" />
    <glyph glyph-name="quotedblleft" unicode="&#x201c;" 
d="M119 480.5q-22 30.5 -22 81.5q0 75 38 113.5t103 38.5h32v-60h-28q-74 0 -74 -58q40 0 62 -20t22 -53q0 -31 -21 -52t-52 -21q-38 0 -60 30.5zM323 480.5q-22 30.5 -22 81.5q0 75 38 113.5t103 38.5h52v-60h-48q-74 0 -74 -58q40 0 62 -20t22 -53q0 -31 -21 -52t-52 -21
q-38 0 -60 30.5z" />
    <glyph glyph-name="quotedblright" unicode="&#x201d;" 
d="M97 510h48q74 0 74 58q-40 0 -62 20t-22 53q0 31 21 52t52 21q38 0 60 -30.5t22 -81.5q0 -75 -38 -113.5t-103 -38.5h-52v60zM321 510h28q74 0 74 58q-40 0 -62 20t-22 53q0 31 21 52t52 21q38 0 60 -30.5t22 -81.5q0 -75 -38 -113.5t-103 -38.5h-32v60z" />
    <glyph glyph-name="quotedblbase" unicode="&#x201e;" 
d="M97 -62h48q74 0 74 58q-40 0 -62 20t-22 53q0 31 21 52t52 21q38 0 60 -30.5t22 -81.5q0 -75 -38 -113.5t-103 -38.5h-52v60zM321 -62h28q74 0 74 58q-40 0 -62 20t-22 53q0 31 21 52t52 21q38 0 60 -30.5t22 -81.5q0 -75 -38 -113.5t-103 -38.5h-32v60z" />
    <glyph glyph-name="dagger" unicode="&#x2020;" 
d="M437 552h-102v-266h-70v266h-102v66h102v82h70v-82h102v-66z" />
    <glyph glyph-name="daggerdbl" unicode="&#x2021;" 
d="M335 552v-118h102v-66h-102v-82h-70v82h-102v66h102v118h-102v66h102v82h70v-82h102v-66h-102z" />
    <glyph glyph-name="bullet" unicode="&#x2022;" 
d="M232 193q-31 18 -49 49t-18 68t18 68t49 49t68 18t68 -18t49 -49t18 -68t-18 -68t-49 -49t-68 -18t-68 18z" />
    <glyph glyph-name="ellipsis" unicode="&#x2026;" 
d="M48 12q-21 21 -21 52t21 52t52 21t52 -21t21 -52t-21 -52t-52 -21t-52 21zM248 12q-21 21 -21 52t21 52t52 21t52 -21t21 -52t-21 -52t-52 -21t-52 21zM448 12q-21 21 -21 52t21 52t52 21t52 -21t21 -52t-21 -52t-52 -21t-52 21z" />
    <glyph glyph-name="perthousand" unicode="&#x2030;" 
d="M93.5 458q-31.5 18 -50 49.5t-18.5 69.5t18.5 69t50 49.5t70.5 18.5t70.5 -18.5t50 -49.5t18.5 -69t-18.5 -69.5t-50 -49.5t-70.5 -18t-70.5 18zM107.5 635.5q-22.5 -22.5 -22.5 -58.5t22.5 -58.5t56.5 -22.5t56.5 22.5t22.5 58.5t-22.5 58.5t-56.5 22.5t-56.5 -22.5z
M493 462l-458 -232l-25 52l458 231zM502.5 241.5q31.5 -18.5 50 -49.5t18.5 -69t-18.5 -69.5t-50 -49.5t-70.5 -18q-33 0 -61.5 13.5t-47.5 37.5q-19 -24 -47.5 -37.5t-61.5 -13.5q-39 0 -70.5 18t-50 49.5t-18.5 69.5t18.5 69t50 49.5t70.5 18.5q33 0 61.5 -13.5
t47.5 -37.5q19 24 47.5 37.5t61.5 13.5q39 0 70.5 -18.5zM270.5 64.5q22.5 22.5 22.5 58.5t-22.5 58.5t-56.5 22.5t-56.5 -22.5t-22.5 -58.5t22.5 -58.5t56.5 -22.5t56.5 22.5zM488.5 64.5q22.5 22.5 22.5 58.5t-22.5 58.5t-56.5 22.5t-56.5 -22.5t-22.5 -58.5t22.5 -58.5
t56.5 -22.5t56.5 22.5z" />
    <glyph glyph-name="guilsinglleft" unicode="&#x2039;" 
d="M149 286v8l156 223h91l-155 -227l155 -227h-91z" />
    <glyph glyph-name="guilsinglright" unicode="&#x203a;" 
d="M359 290l-155 227h91l156 -223v-8l-156 -223h-91z" />
    <glyph glyph-name="fraction" unicode="&#x2044;" 
d="M33 200l500 348l34 -48l-500 -348z" />
    <glyph glyph-name="uni2070" unicode="&#x2070;" 
d="M201.5 390.5q-37.5 47.5 -37.5 134.5t37.5 134.5t98.5 47.5t98.5 -47.5t37.5 -134.5t-37.5 -134.5t-98.5 -47.5t-98.5 47.5zM352.5 432q19.5 30 19.5 93t-19.5 93t-52.5 30t-52.5 -30t-19.5 -93t19.5 -93t52.5 -30t52.5 30z" />
    <glyph glyph-name="uni2074" unicode="&#x2074;" 
d="M310 436h-155v39l149 225h70v-215h57v-49h-57v-86h-64v86zM310 485v99q0 15 2 33l-86 -132h84z" />
    <glyph glyph-name="uni2075" unicode="&#x2075;" 
d="M393.5 548q30.5 -33 30.5 -84q0 -52 -34.5 -86.5t-91.5 -34.5q-55 0 -88 31.5t-33 78.5h64q1 -22 18 -37t40 -15q27 0 43.5 17.5t16.5 45.5t-16.5 45.5t-43.5 17.5q-19 0 -34.5 -9.5t-24.5 -24.5h-61l18 207h213v-58h-158l-12 -90q12 13 31.5 21t42.5 8q49 0 79.5 -33z
" />
    <glyph glyph-name="uni2076" unicode="&#x2076;" 
d="M394 546.5q31 -32.5 31 -82.5q0 -52 -34.5 -86.5t-90.5 -34.5q-57 0 -91 35.5t-34 86.5q0 35 10.5 59.5t35.5 59.5l81 116h67l-90 -128q15 7 38 7q46 0 77 -32.5zM346 415.5q19 18.5 19 47.5t-18.5 47t-46.5 18t-46.5 -18t-18.5 -47t19 -47.5t46 -18.5t46 18.5z" />
    <glyph glyph-name="uni2077" unicode="&#x2077;" 
d="M353 642h-168v58h230v-53l-116 -297h-64z" />
    <glyph glyph-name="uni2078" unicode="&#x2078;" 
d="M212.5 373.5q-33.5 30.5 -33.5 75.5q0 29 16.5 52.5t40.5 33.5q-20 12 -33 31t-13 45q0 41 31 68.5t79 27.5t79 -27.5t31 -68.5q0 -26 -13 -45t-33 -31q24 -10 40.5 -33.5t16.5 -52.5q0 -45 -33.5 -75.5t-87.5 -30.5t-87.5 30.5zM335.5 574q14.5 13 14.5 34t-14.5 34
t-35.5 13t-35.5 -13t-14.5 -34t14.5 -34t35.5 -13t35.5 13zM341.5 414q15.5 15 15.5 40t-15.5 40t-41.5 15t-41.5 -15t-15.5 -40t15.5 -40t41.5 -15t41.5 15z" />
    <glyph glyph-name="uni2079" unicode="&#x2079;" 
d="M391 671.5q34 -35.5 34 -86.5q0 -35 -10.5 -59.5t-35.5 -59.5l-81 -116h-67l90 128q-15 -7 -38 -7q-46 0 -77 32.5t-31 82.5q0 52 34.5 86.5t90.5 34.5q57 0 91 -35.5zM346.5 540q18.5 18 18.5 47t-19 47.5t-46 18.5t-46 -18.5t-19 -47.5t18.5 -47t46.5 -18t46.5 18z" />
    <glyph glyph-name="Euro" unicode="&#x20ac;" 
d="M449 92q35 28 50 79h83q-12 -79 -71.5 -132t-159.5 -53q-58 0 -110 28t-90 86t-53 144h-94l15 72h71q-1 11 -1 34t1 34h-60l14 72h54q15 85 53.5 143.5t90.5 86.5t109 28q101 0 160.5 -52.5t70.5 -132.5h-83q-13 50 -49.5 78.5t-98.5 28.5q-57 0 -103 -44.5t-64 -135.5
h242l-14 -72h-236q-1 -11 -1 -34t1 -34h224l-14 -72h-202q18 -91 64 -135.5t103 -44.5q63 0 98 28z" />
    <glyph glyph-name="uni20BA" unicode="&#x20ba;" 
d="M547 276v-23q0 -123 -61.5 -188t-177.5 -65h-185v152l-91 -57v84l91 57v72l-91 -57v84l91 57v308h86v-254l157 99v-84l-157 -99v-72l157 99v-84l-157 -99v-128h88q87 0 127.5 42.5t40.5 131.5v24h82z" />
    <glyph glyph-name="uni20BD" unicode="&#x20bd;" 
d="M200 276v-87h223v-72h-223v-117h-86v117h-85v72h85v511h212q62 0 112.5 -26.5t79.5 -74.5t29 -111q0 -64 -29 -112t-79 -74t-113 -26h-126zM200 352h121q62 0 101 36.5t39 99.5t-39 99.5t-101 36.5h-121v-272z" />
    <glyph glyph-name="uni2113" unicode="&#x2113;" 
d="M370 89.5q37 33.5 89 121.5l53 -38q-52 -97 -104.5 -142t-123.5 -45q-73 0 -115.5 55.5t-42.5 155.5v2q-22 -7 -60 -16v74q44 12 64 19q13 113 55.5 214t105 162.5t132.5 61.5q54 0 82 -34t28 -91q0 -64 -38.5 -131.5t-113.5 -128.5t-179 -103v-23q0 -70 22 -108.5
t61 -38.5q48 0 85 33.5zM332.5 592q-40.5 -46 -73.5 -122.5t-48 -161.5q115 53 179.5 126t64.5 148q0 25 -12 40.5t-36 15.5q-34 0 -74.5 -46z" />
    <glyph glyph-name="trademark" unicode="&#x2122;" 
d="M244 654h-80v-234h-50v234h-80v46h210v-46zM549 700v-280h-48v186l-69 -186h-36l-69 186v-186h-48v280h60l75 -204l75 204h60z" />
    <glyph glyph-name="uni2126" unicode="&#x2126;" 
d="M36 78h126v59q-66 37 -109 110.5t-43 161.5q0 90 37.5 159.5t103 107.5t149.5 38t149.5 -38t103 -107.5t37.5 -159.5q0 -88 -43 -161.5t-109 -110.5v-59h126v-78h-208v181q65 22 106.5 83t41.5 144q0 70 -27.5 121.5t-74 79t-102.5 27.5t-102.5 -27.5t-74 -79
t-27.5 -121.5q0 -82 41.5 -142t106.5 -85v-181h-208v78z" />
    <glyph glyph-name="estimated" unicode="&#x212e;" 
d="M149 335v-168q23 -25 67.5 -40.5t83.5 -15.5q63 0 115.5 29t83.5 80h52q-35 -72 -101.5 -113t-149.5 -41q-75 0 -139 36.5t-102.5 101.5t-38.5 146t38.5 146t102.5 101.5t139 36.5q77 0 141 -36.5t101.5 -101.5t37.5 -146v-15h-431zM393 567.5q-44 21.5 -93 21.5
q-44 0 -83 -16t-68 -44v-152h317v132q-29 37 -73 58.5zM133 194l-1 4z" />
    <glyph glyph-name="oneeighth" unicode="&#x215b;" 
d="M33 200l500 348l34 -48l-500 -348zM121 700h-73v60h137v-350h-64v290zM329.5 -56.5q-33.5 30.5 -33.5 75.5q0 29 16.5 52.5t40.5 33.5q-20 12 -33 31t-13 45q0 41 31 68.5t79 27.5t79 -27.5t31 -68.5q0 -26 -13 -45t-33 -31q24 -10 40.5 -33.5t16.5 -52.5
q0 -45 -33.5 -75.5t-87.5 -30.5t-87.5 30.5zM452.5 144q14.5 13 14.5 34t-14.5 34t-35.5 13t-35.5 -13t-14.5 -34t14.5 -34t35.5 -13t35.5 13zM458.5 -16q15.5 15 15.5 40t-15.5 40t-41.5 15t-41.5 -15t-15.5 -40t15.5 -40t41.5 -15t41.5 15z" />
    <glyph glyph-name="threeeighths" unicode="&#x215c;" 
d="M33 200l500 348l34 -48l-500 -348zM329.5 -56.5q-33.5 30.5 -33.5 75.5q0 29 16.5 52.5t40.5 33.5q-20 12 -33 31t-13 45q0 41 31 68.5t79 27.5t79 -27.5t31 -68.5q0 -26 -13 -45t-33 -31q24 -10 40.5 -33.5t16.5 -52.5q0 -45 -33.5 -75.5t-87.5 -30.5t-87.5 30.5z
M452.5 144q14.5 13 14.5 34t-14.5 34t-35.5 13t-35.5 -13t-14.5 -34t14.5 -34t35.5 -13t35.5 13zM458.5 -16q15.5 15 15.5 40t-15.5 40t-41.5 15t-41.5 -15t-15.5 -40t15.5 -40t41.5 -15t41.5 15zM65 436.5q-32 33.5 -32 81.5h63q2 -26 17 -41t41 -15q27 0 42.5 14t15.5 39
q0 24 -16 37.5t-43 13.5h-19v51h19q23 0 37.5 12.5t14.5 33.5t-13.5 33.5t-38.5 12.5q-22 0 -37 -13t-17 -34h-61q2 44 33.5 74.5t81.5 30.5q53 0 83.5 -27t30.5 -70q0 -24 -13 -44.5t-32 -31.5q24 -9 39.5 -30t15.5 -51q0 -48 -34.5 -79t-88.5 -31q-57 0 -89 33.5z" />
    <glyph glyph-name="fiveeighths" unicode="&#x215d;" 
d="M33 200l500 348l34 -48l-500 -348zM329.5 -56.5q-33.5 30.5 -33.5 75.5q0 29 16.5 52.5t40.5 33.5q-20 12 -33 31t-13 45q0 41 31 68.5t79 27.5t79 -27.5t31 -68.5q0 -26 -13 -45t-33 -31q24 -10 40.5 -33.5t16.5 -52.5q0 -45 -33.5 -75.5t-87.5 -30.5t-87.5 30.5z
M452.5 144q14.5 13 14.5 34t-14.5 34t-35.5 13t-35.5 -13t-14.5 -34t14.5 -34t35.5 -13t35.5 13zM458.5 -16q15.5 15 15.5 40t-15.5 40t-41.5 15t-41.5 -15t-15.5 -40t15.5 -40t41.5 -15t41.5 15zM233.5 608q30.5 -33 30.5 -84q0 -52 -34.5 -86.5t-91.5 -34.5
q-55 0 -88 31.5t-33 78.5h64q1 -22 18 -37t40 -15q27 0 43.5 17.5t16.5 45.5t-16.5 45.5t-43.5 17.5q-19 0 -34.5 -9.5t-24.5 -24.5h-61l18 207h213v-58h-158l-12 -90q12 13 31.5 21t42.5 8q49 0 79.5 -33z" />
    <glyph glyph-name="seveneighths" unicode="&#x215e;" 
d="M33 200l500 348l34 -48l-500 -348zM329.5 -56.5q-33.5 30.5 -33.5 75.5q0 29 16.5 52.5t40.5 33.5q-20 12 -33 31t-13 45q0 41 31 68.5t79 27.5t79 -27.5t31 -68.5q0 -26 -13 -45t-33 -31q24 -10 40.5 -33.5t16.5 -52.5q0 -45 -33.5 -75.5t-87.5 -30.5t-87.5 30.5z
M452.5 144q14.5 13 14.5 34t-14.5 34t-35.5 13t-35.5 -13t-14.5 -34t14.5 -34t35.5 -13t35.5 13zM458.5 -16q15.5 15 15.5 40t-15.5 40t-41.5 15t-41.5 -15t-15.5 -40t15.5 -40t41.5 -15t41.5 15zM237 702h-168v58h230v-53l-116 -297h-64z" />
    <glyph glyph-name="arrowleft" unicode="&#x2190;" 
d="M588 312h-435l138 -137l-51 -51l-228 226l228 226l51 -51l-138 -137h435v-76z" />
    <glyph glyph-name="arrowup" unicode="&#x2191;" 
d="M475 379l-135 136v-473h-80v473l-135 -136l-51 51l226 228l226 -228z" />
    <glyph glyph-name="arrowright" unicode="&#x2192;" 
d="M588 350l-228 -226l-51 51l138 137h-435v76h435l-138 137l51 51z" />
    <glyph glyph-name="arrowdown" unicode="&#x2193;" 
d="M526 270l-226 -228l-226 228l51 51l135 -136v473h80v-473l135 136z" />
    <glyph glyph-name="uni2196" unicode="&#x2196;" 
d="M476 118l-335 335v-192h-73v321h321v-73h-192l335 -335z" />
    <glyph glyph-name="uni2197" unicode="&#x2197;" 
d="M532 582v-321h-73v192l-335 -335l-56 56l335 335h-192v73h321z" />
    <glyph glyph-name="uni2198" unicode="&#x2198;" 
d="M532 439v-321h-321v73h192l-335 335l56 56l335 -335v192h73z" />
    <glyph glyph-name="uni2199" unicode="&#x2199;" 
d="M197 191h192v-73h-321v321h73v-192l335 335l56 -56z" />
    <glyph glyph-name="uni21B0" unicode="&#x21b0;" 
d="M588 388v-264h-80v188h-355l138 -137l-51 -51l-228 226l228 226l51 -51l-138 -137h435z" />
    <glyph glyph-name="uni21B1" unicode="&#x21b1;" 
d="M588 350l-228 -226l-51 51l138 137h-355v-188h-80v264h435l-138 137l51 51z" />
    <glyph glyph-name="uni21B2" unicode="&#x21b2;" 
d="M588 576v-264h-435l138 -137l-51 -51l-228 226l228 226l51 -51l-138 -137h355v188h80z" />
    <glyph glyph-name="uni21B3" unicode="&#x21b3;" 
d="M588 350l-228 -226l-51 51l138 137h-435v264h80v-188h355l-138 137l51 51z" />
    <glyph glyph-name="partialdiff" unicode="&#x2202;" 
d="M382.5 614.5q74.5 -65.5 118 -156.5t43.5 -196q0 -129 -65 -202.5t-179 -73.5q-68 0 -123 31t-87 85.5t-32 122.5q0 65 32 118t84.5 83t110.5 30q53 0 95.5 -19t69.5 -51q-35 91 -106.5 159.5t-165.5 104.5l36 64q94 -34 168.5 -99.5zM382 80q37 20 58.5 56.5t21.5 84.5
t-21.5 84.5t-58.5 56.5t-82 20t-81.5 -20t-57.5 -56.5t-21 -84.5t21 -84.5t57.5 -56.5t81.5 -20t82 20z" />
    <glyph glyph-name="uni2206" unicode="&#x2206;" 
d="M564 78v-78h-527v78l214 622h99zM477 78l-158 471q-2 7 -4 13.5t-4 12.5q-4 15 -11 35q-5 -18 -7 -23q-4 -19 -11 -38l-158 -471h353z" />
    <glyph glyph-name="product" unicode="&#x220f;" 
d="M578 622h-82v-742h-86v742h-220v-742h-86v742h-82v78h556v-78z" />
    <glyph glyph-name="summation" unicode="&#x2211;" 
d="M66 -42l259 353l-246 311v78h443v-78h-335l216 -269v-76l-239 -319h371v-78h-469v78z" />
    <glyph glyph-name="minus" unicode="&#x2212;" 
d="M64 385h472v-70h-472v70z" />
    <glyph glyph-name="uni2215" unicode="&#x2215;" 
d="M443 700h82l-368 -700h-82z" />
    <glyph glyph-name="uni2219" unicode="&#x2219;" 
d="M240.5 246.5q-27.5 16.5 -44 44t-16.5 59.5q0 50 35.5 85t84.5 35q50 0 85 -35t35 -85q0 -49 -35 -84.5t-85 -35.5q-32 0 -59.5 16.5z" />
    <glyph glyph-name="radical" unicode="&#x221a;" 
d="M28 410h90l87 -260q6 -18 10 -27l9 -27q4 14 10 27l9 27l174 550h142v-78h-80l-205 -622h-100z" />
    <glyph glyph-name="infinity" unicode="&#x221e;" 
d="M501.5 445.5q31.5 -19.5 50.5 -56t19 -83.5t-19 -83.5t-50.5 -56t-66.5 -19.5q-90 0 -135 95q-45 -95 -135 -95q-35 0 -66.5 19.5t-50.5 56t-19 83.5t19 83.5t50.5 56t66.5 19.5q90 0 135 -95q45 95 135 95q35 0 66.5 -19.5zM223 235q22 24 40 71q-18 47 -40 71t-50 24
q-30 0 -52 -25.5t-22 -69.5q0 -43 22 -69t52 -26q28 0 50 24zM479 237q22 26 22 69q0 44 -22 69.5t-52 25.5q-28 0 -50 -24t-40 -71q18 -47 40 -71t50 -24q30 0 52 26z" />
    <glyph glyph-name="integral" unicode="&#x222b;" 
d="M50 -30h81q48 0 68 20t28 70l78 486q25 154 159 154h95v-78h-89q-70 0 -84 -90l-79 -496q-12 -75 -50.5 -109.5t-115.5 -34.5h-91v78z" />
    <glyph glyph-name="approxequal" unicode="&#x2248;" 
d="M350 186q-28 12 -68 35q-28 17 -47.5 26t-36.5 9q-30 0 -45 -20t-15 -54h-72q0 66 36.5 105t88.5 39q31 0 59 -12t68 -35q28 -17 47.5 -26t36.5 -9q30 0 45 20t15 54h72q0 -66 -36.5 -105t-88.5 -39q-31 0 -59 12zM350 386q-28 12 -68 35q-28 17 -47.5 26t-36.5 9
q-30 0 -45 -20t-15 -54h-72q0 66 36.5 105t88.5 39q31 0 59 -12t68 -35q28 -17 47.5 -26t36.5 -9q30 0 45 20t15 54h72q0 -66 -36.5 -105t-88.5 -39q-31 0 -59 12z" />
    <glyph glyph-name="notequal" unicode="&#x2260;" 
d="M384 425l-86 -150h238v-70h-279l-89 -155l-60 35l69 120h-113v70h154l86 150h-240v70h281l89 155l60 -35l-69 -120h111v-70h-152z" />
    <glyph glyph-name="lessequal" unicode="&#x2264;" 
d="M64 70h472v-70h-472v70zM64 331v78l472 220v-78l-397 -181l397 -181v-78z" />
    <glyph glyph-name="greaterequal" unicode="&#x2265;" 
d="M64 70h472v-70h-472v70zM64 189l397 181l-397 181v78l472 -220v-78l-472 -220v78z" />
    <glyph glyph-name="lozenge" unicode="&#x25ca;" 
d="M557 350l-208 -350h-98l-208 350l208 350h98zM468 350l-168 285l-168 -285l168 -285z" />
    <glyph glyph-name="u1F989" unicode="&#x1f989;" 
d="M150.5 91.5q-68.5 40.5 -109 109t-40.5 149.5t40.5 149.5t109 109t149.5 40.5t149.5 -40.5t109 -109t40.5 -149.5t-40.5 -149.5t-109 -109t-149.5 -40.5t-149.5 40.5zM433 120.5q61 35.5 96.5 96.5t35.5 133t-35.5 133t-96.5 96.5t-133 35.5t-133 -35.5t-96.5 -96.5
t-35.5 -133t35.5 -133t96.5 -96.5t133 -35.5t133 35.5zM267 260q-30 -28 -70 -28q-43 0 -73 30t-30 73q0 45 34 76l-34 37h75q59 40 131 40t131 -40h75l-33 -37q15 -15 24 -34.5t9 -41.5q0 -43 -30 -73t-72 -30q-41 0 -71 27l-33 -36zM322 398q22 28 55 41q-36 15 -77 15
t-77 -15q33 -13 55 -41t22 -61q0 33 22 61zM245.5 285.5q20.5 20.5 20.5 49.5t-20 49.5t-49 20.5t-49.5 -20.5t-20.5 -49.5t20.5 -49.5t49.5 -20.5q28 0 48.5 20.5zM452.5 286q20.5 21 20.5 49q0 29 -20.5 49.5t-48.5 20.5q-29 0 -49.5 -20.5t-20.5 -49.5t20.5 -49.5
t49.5 -20.5q28 0 48.5 21zM171 309q-11 11 -11 26t11 25.5t26 10.5t25.5 -10.5t10.5 -25.5t-10.5 -26t-25.5 -11t-26 11zM377.5 309q-10.5 11 -10.5 26t10.5 25.5t26.5 10.5q14 0 25 -10.5t11 -25.5t-11 -26t-25 -11q-16 0 -26.5 11z" />
    <glyph glyph-name="a.ss01" 
d="M443 461.5q51 -46.5 51 -123.5v-338h-76v89q-19 -46 -63 -74.5t-113 -28.5q-44 0 -78.5 20t-54 54t-19.5 75q0 66 49.5 107t132.5 41h140v49q0 51 -30 78t-80 27q-46 0 -76 -21t-36 -59h-82q3 40 27 74.5t67 55.5t100 21q90 0 141 -46.5zM342 78q34 22 52 56.5t18 72.5
v12h-139q-49 0 -75.5 -23t-26.5 -60q0 -36 25 -58t65 -22q47 0 81 22z" />
    <glyph glyph-name="aacute.ss01" 
d="M443 461.5q51 -46.5 51 -123.5v-338h-76v89q-19 -46 -63 -74.5t-113 -28.5q-44 0 -78.5 20t-54 54t-19.5 75q0 66 49.5 107t132.5 41h140v49q0 51 -30 78t-80 27q-46 0 -76 -21t-36 -59h-82q3 40 27 74.5t67 55.5t100 21q90 0 141 -46.5zM342 78q34 22 52 56.5t18 72.5
v12h-139q-49 0 -75.5 -23t-26.5 -60q0 -36 25 -58t65 -22q47 0 81 22zM335 700h124l-118 -133h-78z" />
    <glyph glyph-name="abreve.ss01" 
d="M443 461.5q51 -46.5 51 -123.5v-338h-76v89q-19 -46 -63 -74.5t-113 -28.5q-44 0 -78.5 20t-54 54t-19.5 75q0 66 49.5 107t132.5 41h140v49q0 51 -30 78t-80 27q-46 0 -76 -21t-36 -59h-82q3 40 27 74.5t67 55.5t100 21q90 0 141 -46.5zM342 78q34 22 52 56.5t18 72.5
v12h-139q-49 0 -75.5 -23t-26.5 -60q0 -36 25 -58t65 -22q47 0 81 22zM211 610.5q-35 36.5 -35 89.5h58q0 -32 18.5 -52t49.5 -20t49.5 20t18.5 52h58q0 -53 -35 -89.5t-91 -36.5t-91 36.5z" />
    <glyph glyph-name="acircumflex.ss01" 
d="M443 461.5q51 -46.5 51 -123.5v-338h-76v89q-19 -46 -63 -74.5t-113 -28.5q-44 0 -78.5 20t-54 54t-19.5 75q0 66 49.5 107t132.5 41h140v49q0 51 -30 78t-80 27q-46 0 -76 -21t-36 -59h-82q3 40 27 74.5t67 55.5t100 21q90 0 141 -46.5zM342 78q34 22 52 56.5t18 72.5
v12h-139q-49 0 -75.5 -23t-26.5 -60q0 -36 25 -58t65 -22q47 0 81 22zM261 700h82l111 -133h-78l-74 65l-74 -65h-78z" />
    <glyph glyph-name="adieresis.ss01" 
d="M443 461.5q51 -46.5 51 -123.5v-338h-76v89q-19 -46 -63 -74.5t-113 -28.5q-44 0 -78.5 20t-54 54t-19.5 75q0 66 49.5 107t132.5 41h140v49q0 51 -30 78t-80 27q-46 0 -76 -21t-36 -59h-82q3 40 27 74.5t67 55.5t100 21q90 0 141 -46.5zM342 78q34 22 52 56.5t18 72.5
v12h-139q-49 0 -75.5 -23t-26.5 -60q0 -36 25 -58t65 -22q47 0 81 22zM169 596q-18 18 -18 43q0 26 18 43.5t43 17.5q26 0 43.5 -17.5t17.5 -43.5t-17.5 -43.5t-43.5 -17.5q-25 0 -43 18zM348.5 596q-17.5 18 -17.5 43q0 26 17.5 43.5t43.5 17.5t43.5 -17.5t17.5 -43.5
q0 -25 -18 -43t-43 -18q-26 0 -43.5 18z" />
    <glyph glyph-name="agrave.ss01" 
d="M443 461.5q51 -46.5 51 -123.5v-338h-76v89q-19 -46 -63 -74.5t-113 -28.5q-44 0 -78.5 20t-54 54t-19.5 75q0 66 49.5 107t132.5 41h140v49q0 51 -30 78t-80 27q-46 0 -76 -21t-36 -59h-82q3 40 27 74.5t67 55.5t100 21q90 0 141 -46.5zM342 78q34 22 52 56.5t18 72.5
v12h-139q-49 0 -75.5 -23t-26.5 -60q0 -36 25 -58t65 -22q47 0 81 22zM145 700h124l72 -133h-78z" />
    <glyph glyph-name="amacron.ss01" 
d="M443 461.5q51 -46.5 51 -123.5v-338h-76v89q-19 -46 -63 -74.5t-113 -28.5q-44 0 -78.5 20t-54 54t-19.5 75q0 66 49.5 107t132.5 41h140v49q0 51 -30 78t-80 27q-46 0 -76 -21t-36 -59h-82q3 40 27 74.5t67 55.5t100 21q90 0 141 -46.5zM342 78q34 22 52 56.5t18 72.5
v12h-139q-49 0 -75.5 -23t-26.5 -60q0 -36 25 -58t65 -22q47 0 81 22zM170 670h264v-66h-264v66z" />
    <glyph glyph-name="aogonek.ss01" 
d="M509 -120v-67q-32 -13 -70 -13q-41 0 -67.5 25.5t-26.5 67.5q0 38 21 68.5t52 44.5v83q-19 -46 -63 -74.5t-113 -28.5q-44 0 -78.5 20t-54 54t-19.5 75q0 66 49.5 107t132.5 41h140v49q0 51 -30 78t-80 27q-46 0 -76 -21t-36 -59h-82q3 40 27 74.5t67 55.5t100 21
q90 0 141 -46.5t51 -123.5v-338q-71 -39 -71 -84q0 -21 12 -33t31 -12q22 0 43 9zM342 78q34 22 52 56.5t18 72.5v12h-139q-49 0 -75.5 -23t-26.5 -60q0 -36 25 -58t65 -22q47 0 81 22z" />
    <glyph glyph-name="aring.ss01" 
d="M443 461.5q51 -46.5 51 -123.5v-338h-76v89q-19 -46 -63 -74.5t-113 -28.5q-44 0 -78.5 20t-54 54t-19.5 75q0 66 49.5 107t132.5 41h140v49q0 51 -30 78t-80 27q-46 0 -76 -21t-36 -59h-82q3 40 27 74.5t67 55.5t100 21q90 0 141 -46.5zM342 78q34 22 52 56.5t18 72.5
v12h-139q-49 0 -75.5 -23t-26.5 -60q0 -36 25 -58t65 -22q47 0 81 22zM217 595.5q-35 35.5 -35 84.5q0 50 35 85t85 35q49 0 84.5 -35t35.5 -85q0 -49 -35.5 -84.5t-84.5 -35.5q-50 0 -85 35.5zM351.5 630.5q20.5 20.5 20.5 49.5t-20.5 49.5t-49.5 20.5t-49.5 -20.5
t-20.5 -49.5t20.5 -49.5t49.5 -20.5t49.5 20.5z" />
    <glyph glyph-name="atilde.ss01" 
d="M443 461.5q51 -46.5 51 -123.5v-338h-76v89q-19 -46 -63 -74.5t-113 -28.5q-44 0 -78.5 20t-54 54t-19.5 75q0 66 49.5 107t132.5 41h140v49q0 51 -30 78t-80 27q-46 0 -76 -21t-36 -59h-82q3 40 27 74.5t67 55.5t100 21q90 0 141 -46.5zM342 78q34 22 52 56.5t18 72.5
v12h-139q-49 0 -75.5 -23t-26.5 -60q0 -36 25 -58t65 -22q47 0 81 22zM335.5 580q-20.5 9 -48.5 26q-21 12 -32 17.5t-23 5.5q-21 0 -34.5 -14t-13.5 -36h-72q0 52 29 86.5t79 34.5q28 0 48.5 -9t48.5 -26q21 -12 32 -17.5t23 -5.5q21 0 34.5 14t13.5 36h72q0 -52 -29 -86.5
t-79 -34.5q-28 0 -48.5 9z" />
    <glyph glyph-name="ae.ss01" 
d="M588 229h-249q0 -78 25 -124.5t62 -46.5q30 0 49 28.5t26 76.5h78q-9 -81 -47.5 -129t-96.5 -48q-57 0 -91.5 28.5t-46.5 73.5q-22 -53 -58 -77.5t-87 -24.5q-57 0 -94.5 43.5t-37.5 105.5q0 70 46.5 114t120.5 44h70v59q0 42 -19.5 63.5t-53.5 21.5q-30 0 -47.5 -21
t-20.5 -59h-78q3 63 41.5 107t107.5 44q51 0 82 -21.5t42 -59.5q14 35 45.5 58t75.5 23q82 0 119 -59t37 -178v-42zM509 293q-3 70 -24 107.5t-54 37.5q-35 0 -59 -36t-31 -109h168zM234.5 93q22.5 37 22.5 94v42h-69q-40 0 -63.5 -26t-23.5 -67q0 -36 19.5 -58t50.5 -22
q41 0 63.5 37z" />
    <glyph glyph-name="t.ss02" 
d="M511 426h-191v-426h-82v426h-173v68h173v140h82v-140h191v-68z" />
    <glyph glyph-name="tcaron.ss02" 
d="M511 426h-191v-426h-82v426h-173v68h173v140h82v-140h191v-68zM374 596h8q29 0 44.5 12.5t18.5 42.5q-6 -4 -19 -4q-23 0 -39 16.5t-16 41.5t16.5 42t41.5 17q31 0 49.5 -22t18.5 -67q0 -61 -30.5 -94t-80.5 -33h-12v48z" />
    <glyph glyph-name="uni0163.ss02" 
d="M305 0l-17 -55q18 2 28 2q35 0 58 -23t23 -61q0 -47 -30.5 -69t-76.5 -22q-42 0 -69 10v52q28 -10 57 -10q56 0 56 40q0 18 -13.5 28.5t-35.5 10.5h-64v20l26 77h-9v426h-173v68h173v140h82v-140h191v-68h-191v-426h-15z" />
    <glyph glyph-name="uni021B.ss02" 
d="M511 426h-191v-426h-82v426h-173v68h173v140h82v-140h191v-68zM221 -212h11q27 0 41 12t17 37q-6 -3 -17 -3q-22 0 -36.5 15.5t-14.5 38.5t15.5 38.5t37.5 15.5q32 0 49 -22t17 -64q0 -55 -28 -83.5t-78 -28.5h-14v44z" />
    <glyph glyph-name="u.ss03" 
d="M147.5 43q-58.5 57 -58.5 162v289h82v-297q0 -65 36 -102t93 -37t93 37t36 102v297h82v-289q0 -105 -58.5 -162t-152.5 -57t-152.5 57z" />
    <glyph glyph-name="uacute.ss03" 
d="M147.5 43q-58.5 57 -58.5 162v289h82v-297q0 -65 36 -102t93 -37t93 37t36 102v297h82v-289q0 -105 -58.5 -162t-152.5 -57t-152.5 57zM333 700h124l-118 -133h-78z" />
    <glyph glyph-name="ucircumflex.ss03" 
d="M147.5 43q-58.5 57 -58.5 162v289h82v-297q0 -65 36 -102t93 -37t93 37t36 102v297h82v-289q0 -105 -58.5 -162t-152.5 -57t-152.5 57zM259 700h82l111 -133h-78l-74 65l-74 -65h-78z" />
    <glyph glyph-name="udieresis.ss03" 
d="M147.5 43q-58.5 57 -58.5 162v289h82v-297q0 -65 36 -102t93 -37t93 37t36 102v297h82v-289q0 -105 -58.5 -162t-152.5 -57t-152.5 57zM167 596q-18 18 -18 43q0 26 18 43.5t43 17.5q26 0 43.5 -17.5t17.5 -43.5t-17.5 -43.5t-43.5 -17.5q-25 0 -43 18zM346.5 596
q-17.5 18 -17.5 43q0 26 17.5 43.5t43.5 17.5t43.5 -17.5t17.5 -43.5q0 -25 -18 -43t-43 -18q-26 0 -43.5 18z" />
    <glyph glyph-name="ugrave.ss03" 
d="M147.5 43q-58.5 57 -58.5 162v289h82v-297q0 -65 36 -102t93 -37t93 37t36 102v297h82v-289q0 -105 -58.5 -162t-152.5 -57t-152.5 57zM143 700h124l72 -133h-78z" />
    <glyph glyph-name="uhungarumlaut.ss03" 
d="M147.5 43q-58.5 57 -58.5 162v289h82v-297q0 -65 36 -102t93 -37t93 37t36 102v297h82v-289q0 -105 -58.5 -162t-152.5 -57t-152.5 57zM227 700h116l-94 -133h-78zM407 700h116l-94 -133h-78z" />
    <glyph glyph-name="umacron.ss03" 
d="M147.5 43q-58.5 57 -58.5 162v289h82v-297q0 -65 36 -102t93 -37t93 37t36 102v297h82v-289q0 -105 -58.5 -162t-152.5 -57t-152.5 57zM168 670h264v-66h-264v66z" />
    <glyph glyph-name="uogonek.ss03" 
d="M511 494v-289q0 -80 -34.5 -132.5t-95.5 -73.5q-69 -39 -69 -83q0 -21 12 -33t31 -12q22 0 43 9v-67q-32 -13 -70 -13q-41 0 -67.5 25.5t-26.5 67.5q0 28 12 52.5t32 41.5q-85 7 -137 63t-52 155v289h82v-297q0 -65 36 -102t93 -37t93 37t36 102v297h82z" />
    <glyph glyph-name="uring.ss03" 
d="M147.5 43q-58.5 57 -58.5 162v289h82v-297q0 -65 36 -102t93 -37t93 37t36 102v297h82v-289q0 -105 -58.5 -162t-152.5 -57t-152.5 57zM215 595.5q-35 35.5 -35 84.5q0 50 35 85t85 35q49 0 84.5 -35t35.5 -85q0 -49 -35.5 -84.5t-84.5 -35.5q-50 0 -85 35.5z
M349.5 630.5q20.5 20.5 20.5 49.5t-20.5 49.5t-49.5 20.5t-49.5 -20.5t-20.5 -49.5t20.5 -49.5t49.5 -20.5t49.5 20.5z" />
    <glyph glyph-name="zero.osf" 
d="M159 23q-63 37 -98.5 101t-35.5 143t35.5 143t98.5 101t141 37t141 -37t98.5 -101t35.5 -143t-35.5 -143t-98.5 -101t-141 -37t-141 37zM397 85.5q44 25.5 70 72.5t26 109t-26 109t-70 72.5t-97 25.5t-97 -25.5t-70 -72.5t-26 -109t26 -109t70 -72.5t97 -25.5t97 25.5z
" />
    <glyph glyph-name="one.osf" 
d="M505 76v-76h-408v76h177v382h-139v76h221v-458h149z" />
    <glyph glyph-name="two.osf" 
d="M107 63l230 181q42 33 59.5 61.5t17.5 66.5q0 47 -30.5 74.5t-81.5 27.5t-83.5 -29.5t-36.5 -74.5h-78q2 46 26.5 87t69.5 66t104 25q88 0 139 -48t51 -124q0 -53 -23.5 -95t-74.5 -81l-160 -124h266v-76h-395v63z" />
    <glyph glyph-name="three.osf" 
d="M183 -106.5q-49 29.5 -75 77t-26 100.5h80q4 -56 40.5 -94t96.5 -38q61 0 97.5 34.5t36.5 94.5q0 52 -36 84.5t-95 32.5h-37v72h37q53 0 85 28.5t32 77.5t-33.5 80t-89.5 31q-51 0 -86 -32t-40 -81h-77q1 52 27.5 94.5t72 67.5t103.5 25q62 0 108 -23t70.5 -63.5
t24.5 -90.5q0 -51 -26.5 -90.5t-64.5 -57.5q50 -17 79.5 -57t29.5 -99q0 -58 -27 -104t-77 -72.5t-115 -26.5q-66 0 -115 29.5z" />
    <glyph glyph-name="four.osf" 
d="M371 47h-316v48l309 440h89v-416h88v-72h-88v-170h-82v170zM371 119v237q0 20 2 70l-216 -307h214z" />
    <glyph glyph-name="five.osf" 
d="M427 282.5q47 -28.5 72 -79.5t25 -115t-29 -115t-80.5 -80t-116.5 -29t-114.5 28t-76 74.5t-26.5 99.5h81q2 -55 41 -92t97 -37q66 0 103.5 42.5t37.5 108.5t-37 109t-104 43q-45 0 -80 -23.5t-56 -63.5h-78l36 382h376v-73h-307l-24 -214q24 29 63.5 46t86.5 17
q63 0 110 -28.5z" />
    <glyph glyph-name="six.osf" 
d="M428.5 400q46.5 -28 73.5 -77.5t27 -111.5q0 -64 -30.5 -115t-82.5 -80t-115 -29q-68 0 -120.5 30t-81 81.5t-28.5 113.5q0 66 24 118t72 119l148 209h92l-178 -252q37 22 97 22q56 0 102.5 -28zM374 78.5q33 18.5 53 52t20 77.5q0 43 -20 76.5t-53 52t-73 18.5
t-73.5 -18.5t-53.5 -52t-20 -76.5q0 -44 20 -77.5t53.5 -52t73.5 -18.5t73 18.5z" />
    <glyph glyph-name="seven.osf" 
d="M442 462h-368v73h453v-66l-258 -592h-85z" />
    <glyph glyph-name="eight.osf" 
d="M186 13.5q-48 26.5 -73 71t-25 97.5q0 57 28.5 102.5t76.5 65.5q-38 21 -62 59t-24 90q0 49 25.5 88t70 61.5t97.5 22.5t97.5 -22.5t70 -61.5t25.5 -88q0 -52 -24 -90t-62 -59q48 -20 76.5 -65.5t28.5 -102.5q0 -53 -25 -97.5t-73 -71t-114 -26.5t-114 26.5zM382 413.5
q32 30.5 32 77.5t-32 77.5t-82 30.5t-82 -30t-32 -78q0 -47 32 -77.5t82 -30.5t82 30.5zM393 97.5q35 35.5 35 89.5q0 55 -35 90.5t-93 35.5t-93 -35.5t-35 -90.5q0 -54 35 -89.5t93 -35.5t93 35.5z" />
    <glyph glyph-name="nine.osf" 
d="M421 518.5q52 -29.5 80 -81t28 -114.5q0 -65 -24 -116.5t-73 -120.5l-147 -209h-93l180 252q-41 -22 -94 -22q-55 0 -102.5 28t-76 77.5t-28.5 111.5q0 64 30.5 115t82.5 80t115 29q70 0 122 -29.5zM372.5 198.5q33.5 18.5 53.5 52t20 76.5q0 44 -20 77.5t-53.5 52
t-73.5 18.5t-73 -18.5t-52.5 -52t-19.5 -77.5q0 -43 19.5 -76.5t52.5 -52t73 -18.5t73.5 18.5z" />
    <glyph glyph-name="cent.ss05" 
d="M370 488h56q-8 -37 -32.5 -61.5t-66.5 -30.5v-46h-46v46q-47 8 -77 44t-30 85t30 85t77 44v46h46v-46q43 -5 68.5 -30t30.5 -62h-56q-10 31 -43 41v-156q32 9 43 41zM243.5 475.5q14.5 -20.5 37.5 -28.5v156q-23 -8 -37.5 -28.5t-14.5 -49.5t14.5 -49.5z" />
    <glyph glyph-name="currency.ss05" 
d="M399 456l50 -50l-30 -30l-49 49q-32 -21 -70 -21t-69 21l-50 -49l-30 30l50 50q-21 31 -21 69q0 37 21 69l-50 50l30 30l49 -49q31 22 70 22q40 0 70 -22l49 49l30 -30l-50 -50q21 -31 21 -69t-21 -69zM252 474q19 -20 48 -20t48.5 20t19.5 51t-19.5 51t-48.5 20t-48 -20
t-19 -51t19 -51z" />
    <glyph glyph-name="dollar.ss05" 
d="M398 382q-26 -30 -72 -37v-49h-50v49q-46 7 -73.5 38t-27.5 75h59q0 -28 19 -45t48 -17q65 0 65 52q0 23 -15.5 35t-45.5 21l-38 11q-40 11 -62.5 36.5t-22.5 59.5q0 37 26 63t68 31v48h50v-48q44 -7 67.5 -35t23.5 -67h-56q-1 25 -18.5 39t-43.5 14q-29 0 -44.5 -11.5
t-15.5 -30.5q0 -18 13 -29.5t44 -21.5l46 -14q82 -26 82 -96q0 -41 -26 -71z" />
    <glyph glyph-name="Euro.ss05" 
d="M392 410.5q25 15.5 33 41.5h58q-10 -49 -50 -79t-97 -30t-103.5 35t-61.5 93h-55l7 39h42q-1 5 -1 15t1 15h-37l7 39h36q15 59 61.5 93.5t103.5 34.5q59 0 98 -28.5t49 -80.5h-58q-7 26 -32 41.5t-57 15.5q-36 0 -64.5 -20t-41.5 -56h146l-7 -39h-147q-1 -5 -1 -15t1 -15
h142l-7 -39h-127q13 -36 41.5 -56t64.5 -20q31 0 56 15.5z" />
    <glyph glyph-name="florin.ss05" 
d="M343 611l-6 -47h70v-46h-76l-18 -143q-6 -42 -25 -60.5t-64 -18.5h-41v51h36q19 0 28 7.5t12 30.5l17 133h-58v46h63l7 54q5 39 26.5 60.5t60.5 21.5h42v-51h-37q-32 0 -37 -38z" />
    <glyph glyph-name="uni20BA.ss05" 
d="M434 491v-10q0 -63 -32.5 -97t-92.5 -34h-103v74l-41 -26v48l41 26v41l-41 -26v48l41 26v139h58v-103l80 51v-48l-80 -51v-41l80 51v-48l-80 -51v-57h38q36 0 56 18t20 60v10h56z" />
    <glyph glyph-name="uni20BD.ss05" 
d="M264 483v-36h105v-45h-105v-52h-58v52h-39v45h39v253h110q51 0 83.5 -29.5t32.5 -79.5t-32.5 -79t-83.5 -29h-52zM264 534h50q27 0 43.5 14.5t16.5 42.5t-16.5 43t-43.5 15h-50v-115z" />
    <glyph glyph-name="sterling.ss05" 
d="M428 403v-53h-257v53h8q34 0 34 41v51h-42v47h42v56q0 49 28 79t78 30t78.5 -28t29.5 -72h-55q-2 21 -16 34.5t-37 13.5q-22 0 -35.5 -14.5t-13.5 -40.5v-58h92v-47h-92v-46q0 -31 -18 -46h176z" />
    <glyph glyph-name="yen.ss05" 
d="M350 530h68v-39h-89v-31h89v-39h-89v-71h-58v71h-89v39h89v31h-89v39h68l-92 170h66l76 -150l75 150h67z" />
    <glyph glyph-name="uni030C.alt" horiz-adv-x="0" 
d="M-360 546h8q29 0 44.5 12.5t18.5 42.5q-6 -4 -19 -4q-23 0 -39 16.5t-16 41.5t16.5 42t41.5 17q31 0 49.5 -22t18.5 -67q0 -61 -30.5 -94t-80.5 -33h-12v48z" />
  </font>
</defs>
</svg>
